<svg width="16" height="16" viewBox="0 0 16 16" fill="none" xmlns="http://www.w3.org/2000/svg">
<path d="M14.4706 9.16071L10.98 3.16633L10.9731 3.15446C10.659 2.64881 10.2212 2.23161 9.70094 1.94233C9.1807 1.65304 8.59527 1.50122 8.00001 1.50122C7.40474 1.50122 6.81932 1.65304 6.29907 1.94233C5.77883 2.23161 5.34097 2.64881 5.02688 3.15446L5.02001 3.16633L1.52938 9.16071C1.20193 9.69081 1.02192 10.2987 1.00796 10.9216C0.993995 11.5446 1.14658 12.1599 1.44995 12.7042C1.75332 13.2484 2.19647 13.7018 2.73365 14.0175C3.27083 14.3332 3.88255 14.4998 4.50563 14.5001H11.4944C12.1175 14.4998 12.7292 14.3332 13.2664 14.0175C13.8035 13.7018 14.2467 13.2484 14.5501 12.7042C14.8534 12.1599 15.006 11.5446 14.9921 10.9216C14.9781 10.2987 14.7981 9.69081 14.4706 9.16071ZM10 13.5001H6.00001V10.5001H10V13.5001ZM13.6788 12.2157C13.4648 12.6073 13.1486 12.9335 12.764 13.1596C12.3793 13.3858 11.9406 13.5034 11.4944 13.5001H11V10.5001C11 10.2349 10.8946 9.98051 10.7071 9.79298C10.5196 9.60544 10.2652 9.50008 10 9.50008H6.00001C5.73479 9.50008 5.48044 9.60544 5.2929 9.79298C5.10536 9.98051 5.00001 10.2349 5.00001 10.5001V13.5001H4.50563C4.05999 13.5002 3.62242 13.3812 3.23822 13.1554C2.85402 12.9296 2.53716 12.6053 2.32044 12.2159C2.10372 11.8265 1.99503 11.3862 2.00561 10.9407C2.01619 10.4952 2.14567 10.0606 2.38063 9.68196C2.38316 9.67793 2.38545 9.67375 2.38751 9.66946L5.87813 3.67571C6.10286 3.31614 6.41534 3.01965 6.78621 2.8141C7.15707 2.60855 7.57412 2.5007 7.99813 2.5007C8.42215 2.5007 8.83919 2.60855 9.21006 2.8141C9.58092 3.01965 9.8934 3.31614 10.1181 3.67571L13.6088 9.66946C13.6108 9.67375 13.6131 9.67793 13.6156 9.68196C13.8541 10.0592 13.9858 10.494 13.9969 10.9402C14.0079 11.3864 13.8977 11.8272 13.6781 12.2157H13.6788Z" fill="#73778C"/>
</svg>
