<svg width="68" height="32" viewBox="0 0 68 32" fill="none" xmlns="http://www.w3.org/2000/svg">
<path d="M62.7688 26.6559C61.7368 26.6559 60.8248 26.1759 60.8248 24.5679V23.1999H49.0408C47.2168 23.1999 46.8568 22.4319 46.8568 21.6639C46.8568 20.7039 47.2168 20.0799 49.0408 20.0799H53.9128V18.4719H47.1208C45.5848 18.4719 45.2968 17.8239 45.2968 16.9119C45.2968 16.1679 45.5608 15.3759 47.1208 15.3759H64.5688C66.1288 15.3759 66.3928 16.1679 66.3928 16.9119C66.3928 17.8239 66.1048 18.4719 64.5688 18.4719H57.8008V20.0799H62.7688C64.6168 20.0799 64.7128 21.1599 64.7128 22.0959V24.5679C64.7128 26.2239 63.7768 26.6559 62.7688 26.6559ZM62.8888 13.9839H48.8008C47.1208 13.9839 46.9768 13.0959 46.9768 12.1839V8.12795C46.9768 6.51995 47.8888 6.03995 48.9208 6.03995H62.7688C63.7768 6.03995 64.7128 6.47195 64.7128 8.12795V12.1839C64.7128 13.0959 64.5688 13.9839 62.8888 13.9839ZM50.8648 10.9119H60.8248V9.11195H50.8648V10.9119Z" fill="#193BE6"/>
<path d="M34.0121 26.3919C32.9321 26.3919 32.0681 25.8879 32.0681 24.2799V21.2079H25.6601C23.9081 21.2079 23.4761 20.4159 23.4761 19.5759C23.4761 18.5919 23.9081 17.8959 25.6601 17.8959H42.3401C44.0921 17.8959 44.5241 18.5919 44.5241 19.5759C44.5241 20.4159 44.0921 21.2079 42.3401 21.2079H35.9561V24.2799C35.9561 25.9359 35.0441 26.3919 34.0121 26.3919ZM41.0441 15.7359H26.9561C25.2761 15.7359 25.1321 14.8479 25.1321 13.9359V8.12795C25.1321 6.51995 26.0441 6.03995 27.0761 6.03995H40.9241C41.9321 6.03995 42.8681 6.47195 42.8681 8.12795V13.9359C42.8681 14.8479 42.7241 15.7359 41.0441 15.7359ZM29.0201 12.4239H38.9801V9.35195H29.0201V12.4239Z" fill="#193BE6"/>
<path d="M20.8794 19.0239H3.43142C1.87142 19.0239 1.60742 18.6159 1.60742 17.7039C1.60742 16.9599 1.89542 16.4079 3.43142 16.4079H10.2234V15.3999H9.11942C5.73542 15.3999 4.03142 14.3439 4.03142 12.5199V12.0159C4.03142 11.7759 4.05542 11.5359 4.10342 11.3199C2.97542 11.2239 2.80742 10.7439 2.80742 10.0719C2.80742 9.20795 3.07142 8.77595 4.51142 8.77595H19.7274C21.1674 8.77595 21.4314 9.20795 21.4314 10.0719C21.4314 10.7439 21.2394 11.2239 20.1594 11.3199C20.2314 11.5359 20.2554 11.7519 20.2554 12.0159V12.5199C20.2554 14.2479 18.5754 15.3999 15.1914 15.3999H14.1114V16.4079H20.8794C22.4154 16.4079 22.7034 16.9599 22.7034 17.7039C22.7034 18.6159 22.4394 19.0239 20.8794 19.0239ZM17.3274 26.6799H6.93542C3.91142 26.6079 2.83142 25.4079 2.83142 23.3439C2.83142 21.2079 3.74342 20.0079 6.98342 20.0079H17.2794C20.5194 20.0079 21.4314 21.2079 21.4314 23.3439C21.4314 25.4559 20.3274 26.5839 17.3274 26.6799ZM8.01542 24.0159H16.2474C17.1834 24.0159 17.5674 23.9919 17.5674 23.3439C17.5674 22.6959 17.1834 22.6719 16.2474 22.6719H8.01542C7.07942 22.6719 6.69542 22.6959 6.69542 23.3439C6.69542 23.9919 7.07942 24.0159 8.01542 24.0159ZM9.43142 12.9279H14.8554C16.2714 12.9279 16.4394 12.5919 16.4394 12.2079V12.0879C16.4394 11.8719 16.3674 11.7039 16.2234 11.5599C16.0554 11.4399 15.6954 11.3439 15.0954 11.3199H9.50342C8.11142 11.3199 7.84742 11.5839 7.84742 12.0879V12.2079C7.84742 12.5919 8.01542 12.9279 9.43142 12.9279ZM16.2474 7.76795H7.55942C6.43142 7.76795 6.21542 7.21595 6.21542 6.56795C6.21542 5.79995 6.43142 5.31995 7.55942 5.31995H16.2474C17.3754 5.31995 17.5914 5.79995 17.5914 6.56795C17.5914 7.21595 17.3754 7.76795 16.2474 7.76795Z" fill="#193BE6"/>
</svg>
