<svg width="152" height="152" viewBox="0 0 152 152" fill="none" xmlns="http://www.w3.org/2000/svg">
<g filter="url(#filter0_dd_1520_6209)">
<circle cx="76.25" cy="70.25" r="63.75" fill="#4762EB"/>
<path d="M138.04 86C139.32 80.9626 140 75.6857 140 70.25C140 35.0418 111.458 6.5 76.25 6.5C41.0419 6.5 12.5 35.0418 12.5 70.25C12.5 75.6857 13.1803 80.9626 14.4604 86L138.04 86Z" fill="#193BE6"/>
<path d="M12.5039 69.5002L139.995 69.5002C139.593 34.6376 111.207 6.50024 76.2496 6.50024C41.2918 6.50024 12.9058 34.6376 12.5039 69.5002Z" fill="url(#paint0_linear_1520_6209)"/>
<g clip-path="url(#clip0_1520_6209)">
<g filter="url(#filter1_ddd_1520_6209)">
<path d="M88.2489 50.0007L64.2489 50.0007C63.851 50.0007 63.4695 50.1588 63.1882 50.4401C62.9069 50.7214 62.7489 51.1029 62.7489 51.5007L62.7489 54.0357C62.7528 55.3513 63.2772 56.6119 64.2074 57.5422C65.1377 58.4724 66.3983 58.9968 67.7139 59.0007L84.7839 59.0007C86.0994 58.9968 87.36 58.4724 88.2903 57.5422C89.2205 56.6119 89.7449 55.3513 89.7489 54.0357L89.7489 51.5007C89.7489 51.1029 89.5908 50.7214 89.3095 50.4401C89.0282 50.1588 88.6467 50.0007 88.2489 50.0007Z" fill="#FFD89E"/>
<path d="M64.2489 39.5007L88.2489 39.5007C88.6467 39.5007 89.0282 39.3427 89.3096 39.0614C89.5909 38.78 89.7489 38.3985 89.7489 38.0007C89.7489 31.3857 83.7489 26.0007 76.2489 26.0007C68.7489 26.0007 62.7489 31.3857 62.7489 38.0007C62.7489 38.3985 62.9069 38.78 63.1882 39.0614C63.4695 39.3427 63.8511 39.5007 64.2489 39.5007Z" fill="#FFD89E"/>
<path d="M74.7489 33.5005L73.2489 33.5005C72.8511 33.5005 72.4696 33.3425 72.1883 33.0612C71.907 32.7799 71.7489 32.3984 71.7489 32.0005C71.7489 31.6027 71.907 31.2212 72.1883 30.9399C72.4696 30.6586 72.8511 30.5005 73.2489 30.5005L74.7489 30.5005C75.1468 30.5005 75.5283 30.6586 75.8096 30.9399C76.0909 31.2212 76.2489 31.6027 76.2489 32.0005C76.2489 32.3984 76.0909 32.7799 75.8096 33.0612C75.5283 33.3425 75.1468 33.5005 74.7489 33.5005Z" fill="#FFD89E"/>
<path d="M80.7489 35.0009L79.2489 35.0009C78.8511 35.0009 78.4696 34.8428 78.1882 34.5615C77.9069 34.2802 77.7489 33.8987 77.7489 33.5009C77.7489 33.103 77.9069 32.7215 78.1882 32.4402C78.4696 32.1589 78.8511 32.0009 79.2489 32.0009L80.7489 32.0009C81.1467 32.0009 81.5283 32.1589 81.8096 32.4402C82.0909 32.7215 82.2489 33.103 82.2489 33.5009C82.2489 33.8987 82.0909 34.2802 81.8096 34.5615C81.5283 34.8428 81.1467 35.0009 80.7489 35.0009Z" fill="#FFD89E"/>
<path d="M88.2488 48.5009L64.2488 48.5009C63.851 48.5009 63.4694 48.3428 63.1881 48.0615C62.9068 47.7802 62.7488 47.3987 62.7488 47.0009C62.7488 46.603 62.9068 46.2215 63.1881 45.9402C63.4694 45.6589 63.851 45.5009 64.2488 45.5009L88.2488 45.5009C88.6466 45.5009 89.0281 45.6589 89.3095 45.9402C89.5908 46.2215 89.7488 46.603 89.7488 47.0009C89.7488 47.3987 89.5908 47.7802 89.3095 48.0615C89.0281 48.3428 88.6466 48.5009 88.2488 48.5009Z" fill="#FFD89E"/>
<path d="M88.249 44.0006L64.249 44.0006C63.8511 44.0006 63.4696 43.8425 63.1883 43.5612C62.907 43.2799 62.749 42.8984 62.749 42.5006C62.749 42.1027 62.907 41.7212 63.1883 41.4399C63.4696 41.1586 63.8511 41.0006 64.249 41.0006L88.249 41.0006C88.6468 41.0006 89.0283 41.1586 89.3096 41.4399C89.5909 41.7212 89.749 42.1027 89.749 42.5006C89.749 42.8984 89.5909 43.2799 89.3096 43.5612C89.0283 43.8425 88.6468 44.0006 88.249 44.0006Z" fill="#FFD89E"/>
<path d="M61.2489 54.0357L61.2489 54.0403C61.254 55.7521 61.9363 57.3924 63.1468 58.6028C64.3572 59.8133 65.9975 60.4956 67.7094 60.5007L67.7139 60.5007L84.7839 60.5007L84.7884 60.5007C86.5002 60.4956 88.1405 59.8133 89.3509 58.6028C90.5614 57.3924 91.2437 55.7521 91.2489 54.0403L91.2489 54.0357L91.2489 51.5007C91.2489 50.7051 90.9328 49.942 90.3702 49.3794C90.3258 49.335 90.2801 49.2921 90.2332 49.2508C90.28 49.2095 90.3257 49.1666 90.3701 49.1222C90.9327 48.5596 91.2488 47.7965 91.2488 47.0009C91.2488 46.2052 90.9327 45.4422 90.3701 44.8795C90.3256 44.8351 90.2799 44.7921 90.233 44.7508C90.28 44.7094 90.3258 44.6664 90.3703 44.6219C90.9329 44.0593 91.249 43.2962 91.249 42.5006C91.249 41.7049 90.9329 40.9419 90.3703 40.3792C90.3259 40.3348 90.2802 40.2919 90.2333 40.2506C90.2801 40.2093 90.3258 40.1664 90.3702 40.122C90.9328 39.5594 91.2489 38.7963 91.2489 38.0007C91.2489 30.4 84.4108 24.5007 76.2489 24.5007C68.087 24.5007 61.2489 30.4 61.2489 38.0007C61.2489 38.7963 61.565 39.5594 62.1276 40.122C62.172 40.1664 62.2177 40.2093 62.2645 40.2507C62.2177 40.292 62.1721 40.3348 62.1276 40.3792C61.565 40.9419 61.249 41.7049 61.249 42.5006C61.249 43.2962 61.565 44.0593 62.1276 44.6219C62.1721 44.6664 62.2178 44.7093 62.2647 44.7506C62.2178 44.792 62.172 44.835 62.1275 44.8795C61.5649 45.4422 61.2488 46.2052 61.2488 47.0009C61.2488 47.7965 61.5649 48.5596 62.1275 49.1222C62.1719 49.1666 62.2176 49.2095 62.2644 49.2508C62.2176 49.2921 62.172 49.335 62.1275 49.3794C61.5649 49.942 61.2489 50.7051 61.2489 51.5007L61.2489 54.0357Z" stroke="white" stroke-width="3"/>
</g>
<path d="M88.25 50.0002H64.25C63.8522 50.0002 63.4706 50.1583 63.1893 50.4396C62.908 50.7209 62.75 51.1024 62.75 51.5002V54.0352C62.754 55.3508 63.2783 56.6114 64.2086 57.5417C65.1388 58.4719 66.3994 58.9963 67.715 59.0002H84.785C86.1006 58.9963 87.3612 58.4719 88.2914 57.5417C89.2217 56.6114 89.746 55.3508 89.75 54.0352V51.5002C89.75 51.1024 89.592 50.7209 89.3107 50.4396C89.0294 50.1583 88.6478 50.0002 88.25 50.0002Z" fill="#FFC061"/>
<path d="M64.25 39.5002H88.25C88.6478 39.5002 89.0294 39.3422 89.3107 39.0609C89.592 38.7796 89.75 38.3981 89.75 38.0002C89.75 31.3852 83.75 26.0002 76.25 26.0002C68.75 26.0002 62.75 31.3852 62.75 38.0002C62.75 38.3981 62.908 38.7796 63.1893 39.0609C63.4706 39.3422 63.8522 39.5002 64.25 39.5002Z" fill="#FFC061"/>
<path d="M74.75 33.5002H73.25C72.8522 33.5002 72.4706 33.3422 72.1893 33.0609C71.908 32.7796 71.75 32.3981 71.75 32.0002C71.75 31.6024 71.908 31.2209 72.1893 30.9396C72.4706 30.6583 72.8522 30.5002 73.25 30.5002H74.75C75.1478 30.5002 75.5294 30.6583 75.8107 30.9396C76.092 31.2209 76.25 31.6024 76.25 32.0002C76.25 32.3981 76.092 32.7796 75.8107 33.0609C75.5294 33.3422 75.1478 33.5002 74.75 33.5002Z" fill="#FFD89E"/>
<path d="M80.75 35.0002H79.25C78.8522 35.0002 78.4706 34.8422 78.1893 34.5609C77.908 34.2796 77.75 33.8981 77.75 33.5002C77.75 33.1024 77.908 32.7209 78.1893 32.4396C78.4706 32.1583 78.8522 32.0002 79.25 32.0002H80.75C81.1478 32.0002 81.5294 32.1583 81.8107 32.4396C82.092 32.7209 82.25 33.1024 82.25 33.5002C82.25 33.8981 82.092 34.2796 81.8107 34.5609C81.5294 34.8422 81.1478 35.0002 80.75 35.0002Z" fill="#FFD89E"/>
<path d="M88.25 48.5002H64.25C63.8522 48.5002 63.4706 48.3422 63.1893 48.0609C62.908 47.7796 62.75 47.3981 62.75 47.0002C62.75 46.6024 62.908 46.2209 63.1893 45.9396C63.4706 45.6583 63.8522 45.5002 64.25 45.5002H88.25C88.6478 45.5002 89.0294 45.6583 89.3107 45.9396C89.592 46.2209 89.75 46.6024 89.75 47.0002C89.75 47.3981 89.592 47.7796 89.3107 48.0609C89.0294 48.3422 88.6478 48.5002 88.25 48.5002Z" fill="#E88758"/>
<path d="M88.25 44.0002H64.25C63.8522 44.0002 63.4706 43.8422 63.1893 43.5609C62.908 43.2796 62.75 42.8981 62.75 42.5002C62.75 42.1024 62.908 41.7209 63.1893 41.4396C63.4706 41.1583 63.8522 41.0002 64.25 41.0002H88.25C88.6478 41.0002 89.0294 41.1583 89.3107 41.4396C89.592 41.7209 89.75 42.1024 89.75 42.5002C89.75 42.8981 89.592 43.2796 89.3107 43.5609C89.0294 43.8422 88.6478 44.0002 88.25 44.0002Z" fill="#E88758"/>
</g>
</g>
<defs>
<filter id="filter0_dd_1520_6209" x="0.5" y="0.5" width="151.5" height="151.5" filterUnits="userSpaceOnUse" color-interpolation-filters="sRGB">
<feFlood flood-opacity="0" result="BackgroundImageFix"/>
<feColorMatrix in="SourceAlpha" type="matrix" values="0 0 0 0 0 0 0 0 0 0 0 0 0 0 0 0 0 0 127 0" result="hardAlpha"/>
<feOffset/>
<feGaussianBlur stdDeviation="2"/>
<feComposite in2="hardAlpha" operator="out"/>
<feColorMatrix type="matrix" values="0 0 0 0 0 0 0 0 0 0 0 0 0 0 0 0 0 0 0.05 0"/>
<feBlend mode="normal" in2="BackgroundImageFix" result="effect1_dropShadow_1520_6209"/>
<feColorMatrix in="SourceAlpha" type="matrix" values="0 0 0 0 0 0 0 0 0 0 0 0 0 0 0 0 0 0 127 0" result="hardAlpha"/>
<feOffset dy="6"/>
<feGaussianBlur stdDeviation="6"/>
<feComposite in2="hardAlpha" operator="out"/>
<feColorMatrix type="matrix" values="0 0 0 0 0 0 0 0 0 0 0 0 0 0 0 0 0 0 0.1 0"/>
<feBlend mode="normal" in2="effect1_dropShadow_1520_6209" result="effect2_dropShadow_1520_6209"/>
<feBlend mode="normal" in="SourceGraphic" in2="effect2_dropShadow_1520_6209" result="shape"/>
</filter>
<filter id="filter1_ddd_1520_6209" x="57.749" y="22.0007" width="37" height="43" filterUnits="userSpaceOnUse" color-interpolation-filters="sRGB">
<feFlood flood-opacity="0" result="BackgroundImageFix"/>
<feColorMatrix in="SourceAlpha" type="matrix" values="0 0 0 0 0 0 0 0 0 0 0 0 0 0 0 0 0 0 127 0" result="hardAlpha"/>
<feOffset/>
<feGaussianBlur stdDeviation="0.5"/>
<feComposite in2="hardAlpha" operator="out"/>
<feColorMatrix type="matrix" values="0 0 0 0 0 0 0 0 0 0 0 0 0 0 0 0 0 0 0.08 0"/>
<feBlend mode="normal" in2="BackgroundImageFix" result="effect1_dropShadow_1520_6209"/>
<feColorMatrix in="SourceAlpha" type="matrix" values="0 0 0 0 0 0 0 0 0 0 0 0 0 0 0 0 0 0 127 0" result="hardAlpha"/>
<feOffset/>
<feGaussianBlur stdDeviation="0.5"/>
<feComposite in2="hardAlpha" operator="out"/>
<feColorMatrix type="matrix" values="0 0 0 0 0 0 0 0 0 0 0 0 0 0 0 0 0 0 0.08 0"/>
<feBlend mode="normal" in2="effect1_dropShadow_1520_6209" result="effect2_dropShadow_1520_6209"/>
<feColorMatrix in="SourceAlpha" type="matrix" values="0 0 0 0 0 0 0 0 0 0 0 0 0 0 0 0 0 0 127 0" result="hardAlpha"/>
<feOffset dy="1"/>
<feGaussianBlur stdDeviation="1"/>
<feComposite in2="hardAlpha" operator="out"/>
<feColorMatrix type="matrix" values="0 0 0 0 0 0 0 0 0 0 0 0 0 0 0 0 0 0 0.12 0"/>
<feBlend mode="normal" in2="effect2_dropShadow_1520_6209" result="effect3_dropShadow_1520_6209"/>
<feBlend mode="normal" in="SourceGraphic" in2="effect3_dropShadow_1520_6209" result="shape"/>
</filter>
<linearGradient id="paint0_linear_1520_6209" x1="76.2496" y1="6.50024" x2="76.2496" y2="69.5002" gradientUnits="userSpaceOnUse">
<stop stop-color="#FAFBFE"/>
<stop offset="1" stop-color="#E8EBFC"/>
</linearGradient>
<clipPath id="clip0_1520_6209">
<rect width="48" height="48" fill="white" transform="translate(52.25 18.5002)"/>
</clipPath>
</defs>
</svg>
