<svg width="116" height="116" viewBox="0 0 116 116" fill="none" xmlns="http://www.w3.org/2000/svg">
<path d="M65.1992 90.3998H61.5992V72.3998C61.5992 71.445 61.2199 70.5293 60.5448 69.8542C59.8697 69.1791 58.954 68.7998 57.9992 68.7998C57.0444 68.7998 56.1288 69.1791 55.4536 69.8542C54.7785 70.5293 54.3992 71.445 54.3992 72.3998V90.3998H50.7992C49.8444 90.3998 48.9288 90.7791 48.2536 91.4542C47.5785 92.1293 47.1992 93.045 47.1992 93.9998C47.1992 94.9546 47.5785 95.8703 48.2536 96.5454C48.9288 97.2205 49.8444 97.5998 50.7992 97.5998H65.1992C66.154 97.5998 67.0697 97.2205 67.7448 96.5454C68.4199 95.8703 68.7992 94.9546 68.7992 93.9998C68.7992 93.045 68.4199 92.1293 67.7448 91.4542C67.0697 90.7791 66.154 90.3998 65.1992 90.3998Z" fill="#C7C9D1"/>
<path d="M58 51.5197C54.793 51.5635 51.5884 51.3225 48.424 50.7997C45.6456 50.2901 42.8246 50.0489 40 50.0797V57.9997C40 62.7736 41.8964 67.352 45.2721 70.7277C48.6477 74.1033 53.2261 75.9997 58 75.9997C62.7739 75.9997 67.3523 74.1033 70.7279 70.7277C74.1036 67.352 76 62.7736 76 57.9997V50.0797C73.1766 50.0371 70.3556 50.2661 67.576 50.7637C64.4127 51.2986 61.2081 51.5516 58 51.5197V51.5197Z" fill="#E88758"/>
<path d="M58 44.3199C60.8246 44.3507 63.6456 44.1096 66.424 43.5999C69.5884 43.0771 72.793 42.8362 76 42.8799V21.9999C76 21.0451 75.6207 20.1294 74.9456 19.4543C74.2705 18.7792 73.3548 18.3999 72.4 18.3999H43.6C42.6452 18.3999 41.7295 18.7792 41.0544 19.4543C40.3793 20.1294 40 21.0451 40 21.9999V42.8799C43.2081 42.8481 46.4127 43.1011 49.576 43.6359C52.3556 44.1335 55.1766 44.3626 58 44.3199Z" fill="#E2E3E9"/>
</svg>
