<svg width="48" height="48" viewBox="0 0 48 48" fill="none" xmlns="http://www.w3.org/2000/svg">
<path d="M27 37.5H25.5V30C25.5 29.6022 25.342 29.2206 25.0607 28.9393C24.7794 28.658 24.3978 28.5 24 28.5C23.6022 28.5 23.2206 28.658 22.9393 28.9393C22.658 29.2206 22.5 29.6022 22.5 30V37.5H21C20.6022 37.5 20.2206 37.658 19.9393 37.9393C19.658 38.2206 19.5 38.6022 19.5 39C19.5 39.3978 19.658 39.7794 19.9393 40.0607C20.2206 40.342 20.6022 40.5 21 40.5H27C27.3978 40.5 27.7794 40.342 28.0607 40.0607C28.342 39.7794 28.5 39.3978 28.5 39C28.5 38.6022 28.342 38.2206 28.0607 37.9393C27.7794 37.658 27.3978 37.5 27 37.5Z" fill="#C7C9D1"/>
<path d="M24 21.3001C22.6637 21.3183 21.3285 21.2179 20.01 21.0001C18.8523 20.7877 17.6769 20.6873 16.5 20.7001V24.0001C16.5 25.9892 17.2902 27.8969 18.6967 29.3034C20.1032 30.7099 22.0109 31.5001 24 31.5001C25.9891 31.5001 27.8968 30.7099 29.3033 29.3034C30.7098 27.8969 31.5 25.9892 31.5 24.0001V20.7001C30.3236 20.6823 29.1482 20.7778 27.99 20.9851C26.6719 21.2079 25.3367 21.3134 24 21.3001Z" fill="#E88758"/>
<path d="M24 18.3C25.1769 18.3128 26.3523 18.2124 27.51 18C28.8285 17.7822 30.1637 17.6818 31.5 17.7V9C31.5 8.60218 31.342 8.22064 31.0607 7.93934C30.7794 7.65804 30.3978 7.5 30 7.5H18C17.6022 7.5 17.2206 7.65804 16.9393 7.93934C16.658 8.22064 16.5 8.60218 16.5 9V17.7C17.8367 17.6867 19.1719 17.7922 20.49 18.015C21.6482 18.2223 22.8236 18.3178 24 18.3Z" fill="#E2E3E9"/>
</svg>
