<svg width="48" height="48" viewBox="0 0 48 48" fill="none" xmlns="http://www.w3.org/2000/svg">
<path d="M36 31.5H12C11.6022 31.5 11.2206 31.658 10.9393 31.9393C10.658 32.2206 10.5 32.6022 10.5 33V35.535C10.504 36.8506 11.0283 38.1112 11.9586 39.0414C12.8888 39.9717 14.1494 40.496 15.465 40.5H32.535C33.8506 40.496 35.1112 39.9717 36.0414 39.0414C36.9717 38.1112 37.496 36.8506 37.5 35.535V33C37.5 32.6022 37.342 32.2206 37.0607 31.9393C36.7794 31.658 36.3978 31.5 36 31.5Z" fill="#FFC061"/>
<path d="M12 21H36C36.3978 21 36.7794 20.842 37.0607 20.5607C37.342 20.2794 37.5 19.8978 37.5 19.5C37.5 12.885 31.5 7.5 24 7.5C16.5 7.5 10.5 12.885 10.5 19.5C10.5 19.8978 10.658 20.2794 10.9393 20.5607C11.2206 20.842 11.6022 21 12 21Z" fill="#FFC061"/>
<path d="M22.5 15H21C20.6022 15 20.2206 14.842 19.9393 14.5607C19.658 14.2794 19.5 13.8978 19.5 13.5C19.5 13.1022 19.658 12.7206 19.9393 12.4393C20.2206 12.158 20.6022 12 21 12H22.5C22.8978 12 23.2794 12.158 23.5607 12.4393C23.842 12.7206 24 13.1022 24 13.5C24 13.8978 23.842 14.2794 23.5607 14.5607C23.2794 14.842 22.8978 15 22.5 15Z" fill="#FFD89E"/>
<path d="M28.5 16.5H27C26.6022 16.5 26.2206 16.342 25.9393 16.0607C25.658 15.7794 25.5 15.3978 25.5 15C25.5 14.6022 25.658 14.2206 25.9393 13.9393C26.2206 13.658 26.6022 13.5 27 13.5H28.5C28.8978 13.5 29.2794 13.658 29.5607 13.9393C29.842 14.2206 30 14.6022 30 15C30 15.3978 29.842 15.7794 29.5607 16.0607C29.2794 16.342 28.8978 16.5 28.5 16.5Z" fill="#FFD89E"/>
<path d="M36 30H12C11.6022 30 11.2206 29.842 10.9393 29.5607C10.658 29.2794 10.5 28.8978 10.5 28.5C10.5 28.1022 10.658 27.7206 10.9393 27.4393C11.2206 27.158 11.6022 27 12 27H36C36.3978 27 36.7794 27.158 37.0607 27.4393C37.342 27.7206 37.5 28.1022 37.5 28.5C37.5 28.8978 37.342 29.2794 37.0607 29.5607C36.7794 29.842 36.3978 30 36 30Z" fill="#E88758"/>
<path d="M36 25.5H12C11.6022 25.5 11.2206 25.342 10.9393 25.0607C10.658 24.7794 10.5 24.3978 10.5 24C10.5 23.6022 10.658 23.2206 10.9393 22.9393C11.2206 22.658 11.6022 22.5 12 22.5H36C36.3978 22.5 36.7794 22.658 37.0607 22.9393C37.342 23.2206 37.5 23.6022 37.5 24C37.5 24.3978 37.342 24.7794 37.0607 25.0607C36.7794 25.342 36.3978 25.5 36 25.5Z" fill="#E88758"/>
</svg>
