<svg width="116" height="116" viewBox="0 0 116 116" fill="none" xmlns="http://www.w3.org/2000/svg">
<path d="M86.7996 76H29.1996C28.2448 76 27.3292 76.3793 26.654 77.0544C25.9789 77.7295 25.5996 78.6452 25.5996 79.6V85.684C25.6091 88.8414 26.8676 91.8668 29.1002 94.0994C31.3328 96.332 34.3582 97.5905 37.5156 97.6H78.4836C81.641 97.5905 84.6664 96.332 86.899 94.0994C89.1316 91.8668 90.3901 88.8414 90.3996 85.684V79.6C90.3996 78.6452 90.0203 77.7295 89.3452 77.0544C88.6701 76.3793 87.7544 76 86.7996 76Z" fill="#FFC061"/>
<path d="M29.1996 50.7999H86.7996C87.7544 50.7999 88.6701 50.4206 89.3452 49.7455C90.0203 49.0704 90.3996 48.1547 90.3996 47.1999C90.3996 31.3239 75.9996 18.3999 57.9996 18.3999C39.9996 18.3999 25.5996 31.3239 25.5996 47.1999C25.5996 48.1547 25.9789 49.0704 26.654 49.7455C27.3292 50.4206 28.2448 50.7999 29.1996 50.7999Z" fill="#FFC061"/>
<path d="M54.3992 36.3997H50.7992C49.8444 36.3997 48.9288 36.0204 48.2536 35.3453C47.5785 34.6702 47.1992 33.7545 47.1992 32.7997C47.1992 31.8449 47.5785 30.9293 48.2536 30.2541C48.9288 29.579 49.8444 29.1997 50.7992 29.1997H54.3992C55.354 29.1997 56.2697 29.579 56.9448 30.2541C57.6199 30.9293 57.9992 31.8449 57.9992 32.7997C57.9992 33.7545 57.6199 34.6702 56.9448 35.3453C56.2697 36.0204 55.354 36.3997 54.3992 36.3997Z" fill="#FFD89E"/>
<path d="M68.7996 39.9998H65.1996C64.2448 39.9998 63.3292 39.6205 62.654 38.9454C61.9789 38.2703 61.5996 37.3546 61.5996 36.3998C61.5996 35.445 61.9789 34.5294 62.654 33.8542C63.3292 33.1791 64.2448 32.7998 65.1996 32.7998H68.7996C69.7544 32.7998 70.6701 33.1791 71.3452 33.8542C72.0203 34.5294 72.3996 35.445 72.3996 36.3998C72.3996 37.3546 72.0203 38.2703 71.3452 38.9454C70.6701 39.6205 69.7544 39.9998 68.7996 39.9998Z" fill="#FFD89E"/>
<path d="M86.7996 72.3997H29.1996C28.2448 72.3997 27.3292 72.0204 26.654 71.3453C25.9789 70.6702 25.5996 69.7545 25.5996 68.7997C25.5996 67.8449 25.9789 66.9293 26.654 66.2541C27.3292 65.579 28.2448 65.1997 29.1996 65.1997H86.7996C87.7544 65.1997 88.6701 65.579 89.3452 66.2541C90.0203 66.9293 90.3996 67.8449 90.3996 68.7997C90.3996 69.7545 90.0203 70.6702 89.3452 71.3453C88.6701 72.0204 87.7544 72.3997 86.7996 72.3997Z" fill="#E88758"/>
<path d="M86.7996 61.5999H29.1996C28.2448 61.5999 27.3292 61.2206 26.654 60.5455C25.9789 59.8704 25.5996 58.9547 25.5996 57.9999C25.5996 57.0451 25.9789 56.1294 26.654 55.4543C27.3292 54.7792 28.2448 54.3999 29.1996 54.3999H86.7996C87.7544 54.3999 88.6701 54.7792 89.3452 55.4543C90.0203 56.1294 90.3996 57.0451 90.3996 57.9999C90.3996 58.9547 90.0203 59.8704 89.3452 60.5455C88.6701 61.2206 87.7544 61.5999 86.7996 61.5999Z" fill="#E88758"/>
</svg>
