<svg width="21" height="20" viewBox="0 0 21 20" fill="none" xmlns="http://www.w3.org/2000/svg">
<path d="M12.5832 3.33301H8.4165L6.33317 5.83301H3.83317C3.39114 5.83301 2.96722 6.0086 2.65466 6.32116C2.3421 6.63372 2.1665 7.05765 2.1665 7.49967V14.9997C2.1665 15.4417 2.3421 15.8656 2.65466 16.1782C2.96722 16.4907 3.39114 16.6663 3.83317 16.6663H17.1665C17.6085 16.6663 18.0325 16.4907 18.345 16.1782C18.6576 15.8656 18.8332 15.4417 18.8332 14.9997V7.49967C18.8332 7.05765 18.6576 6.63372 18.345 6.32116C18.0325 6.0086 17.6085 5.83301 17.1665 5.83301H14.6665L12.5832 3.33301Z" stroke="#193BE6" stroke-width="1.66667" stroke-linecap="round" stroke-linejoin="round"/>
<path d="M10.5 13.333C11.8807 13.333 13 12.2137 13 10.833C13 9.4523 11.8807 8.33301 10.5 8.33301C9.11929 8.33301 8 9.4523 8 10.833C8 12.2137 9.11929 13.333 10.5 13.333Z" stroke="#193BE6" stroke-width="1.66667" stroke-linecap="round" stroke-linejoin="round"/>
</svg>
