<svg width="36" height="36" viewBox="0 0 36 36" fill="none" xmlns="http://www.w3.org/2000/svg">
<g filter="url(#filter0_ddd_1129_15946)">
<rect x="2" y="1" width="32" height="32" rx="8" fill="url(#paint0_linear_1129_15946)" shape-rendering="crispEdges"/>
<path d="M17.9999 12.2521C14.3507 12.2521 11.3922 15.5543 11.3922 19.2638C11.3922 22.9734 13.5009 26.9455 16.7917 28.4815C17.1699 28.6583 17.5824 28.75 18.0002 28.75C18.4179 28.75 18.8304 28.6583 19.2087 28.4815C22.4995 26.9455 24.6081 22.9445 24.6081 19.2638C24.6081 15.5832 21.6496 12.2521 18.0002 12.2521H17.9999ZM19.7218 20.571C19.265 21.0272 18.6458 21.2834 17.9999 21.2834C17.354 21.2834 16.7348 21.0272 16.2781 20.571C15.8213 20.1149 15.5648 19.4964 15.5648 18.8514C15.5648 18.2063 15.8213 17.5879 16.2781 17.1317C16.7348 16.6756 17.354 16.4194 17.9999 16.4194C18.6458 16.4194 19.265 16.6756 19.7218 17.1317C20.1785 17.5879 20.435 18.2063 20.435 18.8514C20.435 19.4964 20.1785 20.1149 19.7218 20.571Z" fill="url(#paint1_linear_1129_15946)"/>
<path d="M24.3428 9.47852C22.9142 8.57298 21.4112 7.98897 19.8862 7.72522V7.13392C19.8862 6.09349 19.0417 5.25 17.9999 5.25C16.9582 5.25 16.1136 6.09349 16.1136 7.13392V7.72522C14.5889 7.98897 13.0856 8.57298 11.657 9.47852C10.7775 10.0362 10.5169 11.2002 11.0751 12.0786C11.6334 12.957 12.7989 13.2172 13.6784 12.6598C16.4652 10.8937 19.5344 10.8937 22.3211 12.6598C22.6345 12.8585 22.9844 12.9535 23.3302 12.9535C23.9544 12.9535 24.5654 12.6443 24.9248 12.0788C25.4831 11.2004 25.2226 10.0362 24.3428 9.47877V9.47852Z" fill="url(#paint2_linear_1129_15946)"/>
</g>
<defs>
<filter id="filter0_ddd_1129_15946" x="0" y="0" width="36" height="36" filterUnits="userSpaceOnUse" color-interpolation-filters="sRGB">
<feFlood flood-opacity="0" result="BackgroundImageFix"/>
<feColorMatrix in="SourceAlpha" type="matrix" values="0 0 0 0 0 0 0 0 0 0 0 0 0 0 0 0 0 0 127 0" result="hardAlpha"/>
<feOffset/>
<feGaussianBlur stdDeviation="0.5"/>
<feComposite in2="hardAlpha" operator="out"/>
<feColorMatrix type="matrix" values="0 0 0 0 0 0 0 0 0 0 0 0 0 0 0 0 0 0 0.08 0"/>
<feBlend mode="normal" in2="BackgroundImageFix" result="effect1_dropShadow_1129_15946"/>
<feColorMatrix in="SourceAlpha" type="matrix" values="0 0 0 0 0 0 0 0 0 0 0 0 0 0 0 0 0 0 127 0" result="hardAlpha"/>
<feOffset/>
<feGaussianBlur stdDeviation="0.5"/>
<feComposite in2="hardAlpha" operator="out"/>
<feColorMatrix type="matrix" values="0 0 0 0 0 0 0 0 0 0 0 0 0 0 0 0 0 0 0.08 0"/>
<feBlend mode="normal" in2="effect1_dropShadow_1129_15946" result="effect2_dropShadow_1129_15946"/>
<feColorMatrix in="SourceAlpha" type="matrix" values="0 0 0 0 0 0 0 0 0 0 0 0 0 0 0 0 0 0 127 0" result="hardAlpha"/>
<feOffset dy="1"/>
<feGaussianBlur stdDeviation="1"/>
<feComposite in2="hardAlpha" operator="out"/>
<feColorMatrix type="matrix" values="0 0 0 0 0 0 0 0 0 0 0 0 0 0 0 0 0 0 0.12 0"/>
<feBlend mode="normal" in2="effect2_dropShadow_1129_15946" result="effect3_dropShadow_1129_15946"/>
<feBlend mode="normal" in="SourceGraphic" in2="effect3_dropShadow_1129_15946" result="shape"/>
</filter>
<linearGradient id="paint0_linear_1129_15946" x1="18" y1="1" x2="18" y2="33" gradientUnits="userSpaceOnUse">
<stop stop-color="white"/>
<stop offset="1" stop-color="#E2E3E9"/>
</linearGradient>
<linearGradient id="paint1_linear_1129_15946" x1="18" y1="5.25" x2="18" y2="28.75" gradientUnits="userSpaceOnUse">
<stop stop-color="#193BE6"/>
<stop offset="1" stop-color="#0F248A"/>
</linearGradient>
<linearGradient id="paint2_linear_1129_15946" x1="18" y1="5.25" x2="18" y2="28.75" gradientUnits="userSpaceOnUse">
<stop stop-color="#193BE6"/>
<stop offset="1" stop-color="#0F248A"/>
</linearGradient>
</defs>
</svg>
