<svg width="116" height="116" viewBox="0 0 116 116" fill="none" xmlns="http://www.w3.org/2000/svg">
<path d="M98.6788 65.1997H68.7988C67.8441 65.1997 66.9284 64.8204 66.2532 64.1453C65.5781 63.4702 65.1988 62.5545 65.1988 61.5997C65.1988 60.6449 65.5781 59.7293 66.2532 59.0541C66.9284 58.379 67.8441 57.9997 68.7988 57.9997H100.587C100.992 55.621 101.196 53.2126 101.199 50.7997C101.199 49.8449 100.82 48.9293 100.144 48.2541C99.4693 47.579 98.5536 47.1997 97.5988 47.1997H18.3988C17.444 47.1997 16.5284 47.579 15.8532 48.2541C15.1781 48.9293 14.7988 49.8449 14.7988 50.7997C14.8063 59.425 17.3956 67.8507 22.2332 74.9916C27.0708 82.1326 33.9354 87.662 41.9428 90.8677C41.3666 91.1661 40.8817 91.6147 40.5395 92.166C40.1973 92.7173 40.0105 93.3509 39.9988 93.9997C39.9988 94.9545 40.3781 95.8702 41.0532 96.5453C41.7284 97.2204 42.644 97.5997 43.5988 97.5997H72.3988C73.3536 97.5997 74.2693 97.2204 74.9444 96.5453C75.6195 95.8702 75.9988 94.9545 75.9988 93.9997C75.9871 93.3509 75.8003 92.7173 75.4581 92.166C75.1159 91.6147 74.6311 91.1661 74.0548 90.8677C79.7461 88.5823 84.8855 85.1113 89.1312 80.6856C93.3769 76.2599 96.6316 70.9809 98.6788 65.1997V65.1997Z" fill="#E2E3E9"/>
<path d="M56.0208 43.5999C55.066 43.5999 54.1504 43.2206 53.4752 42.5455C52.8001 41.8704 52.4208 40.9547 52.4208 39.9999C52.3471 36.3901 53.124 32.8137 54.6888 29.5599C55.8727 27.2198 56.4543 24.6214 56.3808 21.9999C56.3808 21.0451 56.7601 20.1294 57.4352 19.4543C58.1104 18.7792 59.026 18.3999 59.9808 18.3999C60.9356 18.3999 61.8513 18.7792 62.5264 19.4543C63.2015 20.1294 63.5808 21.0451 63.5808 21.9999C63.6546 25.6097 62.8776 29.1861 61.3128 32.4399C60.1289 34.78 59.5474 37.3784 59.6208 39.9999C59.6208 40.4727 59.5277 40.9408 59.3468 41.3776C59.1659 41.8143 58.9007 42.2112 58.5664 42.5455C58.2321 42.8798 57.8353 43.145 57.3985 43.3259C56.9617 43.5068 56.4936 43.5999 56.0208 43.5999V43.5999Z" fill="#8F92A3"/>
<path d="M41.6204 43.5999C40.6656 43.5999 39.75 43.2206 39.0748 42.5455C38.3997 41.8704 38.0204 40.9547 38.0204 39.9999C37.9467 36.3901 38.7236 32.8137 40.2884 29.5599C41.4723 27.2198 42.0539 24.6214 41.9804 21.9999C41.9804 21.0451 42.3597 20.1294 43.0348 19.4543C43.71 18.7792 44.6256 18.3999 45.5804 18.3999C46.5352 18.3999 47.4509 18.7792 48.126 19.4543C48.8011 20.1294 49.1804 21.0451 49.1804 21.9999C49.2542 25.6097 48.4772 29.1861 46.9124 32.4399C45.7285 34.78 45.147 37.3784 45.2204 39.9999C45.2204 40.9547 44.8411 41.8704 44.166 42.5455C43.4909 43.2206 42.5752 43.5999 41.6204 43.5999Z" fill="#8F92A3"/>
<path d="M70.4212 43.5999C69.4664 43.5999 68.5508 43.2206 67.8756 42.5455C67.2005 41.8704 66.8212 40.9547 66.8212 39.9999C66.7474 36.3901 67.5244 32.8137 69.0892 29.5599C70.2731 27.2198 70.8547 24.6214 70.7812 21.9999C70.7812 21.0451 71.1605 20.1294 71.8356 19.4543C72.5108 18.7792 73.4264 18.3999 74.3812 18.3999C75.336 18.3999 76.2517 18.7792 76.9268 19.4543C77.6019 20.1294 77.9812 21.0451 77.9812 21.9999C78.055 25.6097 77.278 29.1861 75.7132 32.4399C74.5293 34.78 73.9477 37.3784 74.0212 39.9999C74.0212 40.4727 73.9281 40.9408 73.7472 41.3776C73.5663 41.8143 73.3011 42.2112 72.9668 42.5455C72.6325 42.8798 72.2356 43.145 71.7989 43.3259C71.3621 43.5068 70.894 43.5999 70.4212 43.5999V43.5999Z" fill="#8F92A3"/>
</svg>
