<svg width="48" height="48" viewBox="0 0 48 48" fill="none" xmlns="http://www.w3.org/2000/svg">
<path d="M43.2897 14.235L38.7897 6.735C38.657 6.51108 38.4682 6.32557 38.2421 6.1967C38.0159 6.06784 37.7601 6.00005 37.4997 6H22.4997C22.2394 6.00005 21.9836 6.06784 21.7574 6.1967C21.5312 6.32557 21.3425 6.51108 21.2097 6.735L16.7097 14.235C16.5747 14.4627 16.5024 14.7222 16.5001 14.9869C16.4977 15.2516 16.5655 15.5123 16.6966 15.7423C16.8276 15.9724 17.0172 16.1637 17.2461 16.2968C17.475 16.4298 17.735 16.5 17.9997 16.5H41.9997C42.2645 16.5 42.5245 16.4298 42.7534 16.2968C42.9823 16.1637 43.1719 15.9724 43.3029 15.7423C43.4339 15.5123 43.5017 15.2516 43.4994 14.9869C43.4971 14.7222 43.4248 14.4627 43.2897 14.235Z" fill="#FFD89E"/>
<path d="M15.5549 19.605C15.3717 19.532 15.1759 19.4957 14.9787 19.4984C14.7815 19.5011 14.5868 19.5427 14.4057 19.6207C14.2246 19.6987 14.0606 19.8117 13.9232 19.9531C13.7858 20.0946 13.6776 20.2617 13.6049 20.445L11.2499 26.34L8.89488 20.445C8.822 20.2619 8.71375 20.0948 8.57631 19.9534C8.43887 19.8121 8.27493 19.6992 8.09385 19.6212C7.91278 19.5432 7.71812 19.5016 7.52097 19.4988C7.32383 19.4961 7.12808 19.5322 6.94488 19.605C6.76169 19.6779 6.59465 19.7862 6.45329 19.9236C6.31193 20.0611 6.19903 20.225 6.12103 20.4061C6.04302 20.5871 6.00145 20.7818 5.99868 20.979C5.99591 21.1761 6.032 21.3719 6.10488 21.555L9.62988 30.375L7.60488 35.445C7.53182 35.6282 7.49559 35.824 7.49827 36.0212C7.50095 36.2184 7.54249 36.4131 7.62051 36.5942C7.69853 36.7754 7.8115 36.9393 7.95296 37.0767C8.09441 37.2141 8.26158 37.3223 8.44488 37.395C8.62157 37.4649 8.8099 37.5005 8.99988 37.5C9.3003 37.5003 9.59389 37.4104 9.84261 37.2419C10.0913 37.0734 10.2837 36.8341 10.3949 36.555L11.2499 34.41L12.1049 36.555C12.216 36.8341 12.4084 37.0734 12.6572 37.2419C12.9059 37.4104 13.1995 37.5003 13.4999 37.5C13.6899 37.5005 13.8782 37.4649 14.0549 37.395C14.2382 37.3223 14.4054 37.2141 14.5468 37.0767C14.6883 36.9393 14.8012 36.7754 14.8793 36.5942C14.9573 36.4131 14.9988 36.2184 15.0015 36.0212C15.0042 35.824 14.968 35.6282 14.8949 35.445L12.8699 30.375L16.3949 21.555C16.468 21.3719 16.5042 21.1761 16.5015 20.9789C16.4988 20.7817 16.4573 20.587 16.3793 20.4059C16.3012 20.2247 16.1883 20.0608 16.0468 19.9234C15.9054 19.786 15.7382 19.6778 15.5549 19.605Z" fill="#FFD89E"/>
<path d="M41.175 36L43.5 15.165C43.5257 14.9556 43.5068 14.7432 43.4448 14.5416C43.3828 14.34 43.2789 14.1537 43.14 13.995C42.9964 13.8358 42.8203 13.7093 42.6237 13.6239C42.427 13.5385 42.2144 13.4962 42 13.5H18C17.7882 13.4984 17.5784 13.5417 17.3845 13.627C17.1906 13.7123 17.017 13.8377 16.875 13.995C16.7361 14.1537 16.6323 14.34 16.5702 14.5416C16.5082 14.7432 16.4894 14.9556 16.515 15.165L18.825 36H41.175Z" fill="#FFC061"/>
<path d="M19.1548 39L19.4998 42.165C19.5406 42.5336 19.7164 42.874 19.9934 43.1205C20.2705 43.3671 20.629 43.5022 20.9998 43.5H38.9998C39.3706 43.5022 39.7291 43.3671 40.0061 43.1205C40.2831 42.874 40.459 42.5336 40.4998 42.165L40.8448 39H19.1548Z" fill="#FFC061"/>
<path d="M30 31.5C33.3137 31.5 36 28.8137 36 25.5C36 22.1863 33.3137 19.5 30 19.5C26.6863 19.5 24 22.1863 24 25.5C24 28.8137 26.6863 31.5 30 31.5Z" fill="#E88758"/>
</svg>
