<svg width="48" height="48" viewBox="0 0 48 48" fill="none" xmlns="http://www.w3.org/2000/svg">
<path d="M40.95 27H28.5C28.1022 27 27.7206 26.842 27.4393 26.5607C27.158 26.2794 27 25.8978 27 25.5C27 25.1022 27.158 24.7206 27.4393 24.4393C27.7206 24.158 28.1022 24 28.5 24H41.745C41.9136 23.0089 41.9989 22.0054 42 21C42 20.6022 41.842 20.2206 41.5607 19.9393C41.2794 19.658 40.8978 19.5 40.5 19.5H7.5C7.10218 19.5 6.72064 19.658 6.43934 19.9393C6.15804 20.2206 6 20.6022 6 21C6.00311 24.5939 7.08197 28.1046 9.09766 31.08C11.1133 34.0554 13.9736 36.3593 17.31 37.695C17.0699 37.8193 16.8679 38.0062 16.7253 38.236C16.5827 38.4657 16.5049 38.7297 16.5 39C16.5 39.3978 16.658 39.7794 16.9393 40.0607C17.2206 40.342 17.6022 40.5 18 40.5H30C30.3978 40.5 30.7794 40.342 31.0607 40.0607C31.342 39.7794 31.5 39.3978 31.5 39C31.4951 38.7297 31.4173 38.4657 31.2747 38.236C31.1321 38.0062 30.9301 37.8193 30.69 37.695C33.0613 36.7428 35.2028 35.2965 36.9718 33.4525C38.7409 31.6084 40.097 29.4088 40.95 27Z" fill="#E2E3E9"/>
<path d="M23.1749 18C22.777 18 22.3955 17.842 22.1142 17.5607C21.8329 17.2794 21.6749 16.8978 21.6749 16.5C21.6441 14.9959 21.9678 13.5057 22.6199 12.15C23.1131 11.175 23.3555 10.0923 23.3249 9C23.3249 8.60218 23.4829 8.22064 23.7642 7.93934C24.0455 7.65804 24.427 7.5 24.8249 7.5C25.2227 7.5 25.6042 7.65804 25.8855 7.93934C26.1668 8.22064 26.3249 8.60218 26.3249 9C26.3556 10.5041 26.0319 11.9943 25.3799 13.35C24.8866 14.325 24.6442 15.4077 24.6749 16.5C24.6749 16.697 24.6361 16.892 24.5607 17.074C24.4853 17.256 24.3748 17.4214 24.2355 17.5607C24.0962 17.6999 23.9309 17.8104 23.7489 17.8858C23.5669 17.9612 23.3718 18 23.1749 18Z" fill="#8F92A3"/>
<path d="M17.1749 18C16.777 18 16.3955 17.842 16.1142 17.5607C15.8329 17.2794 15.6749 16.8978 15.6749 16.5C15.6441 14.9959 15.9678 13.5057 16.6199 12.15C17.1131 11.175 17.3555 10.0923 17.3249 9C17.3249 8.60218 17.4829 8.22064 17.7642 7.93934C18.0455 7.65804 18.427 7.5 18.8249 7.5C19.2227 7.5 19.6042 7.65804 19.8855 7.93934C20.1668 8.22064 20.3249 8.60218 20.3249 9C20.3556 10.5041 20.0319 11.9943 19.3799 13.35C18.8866 14.325 18.6442 15.4077 18.6749 16.5C18.6749 16.8978 18.5168 17.2794 18.2355 17.5607C17.9542 17.842 17.5727 18 17.1749 18Z" fill="#8F92A3"/>
<path d="M29.1749 18C28.777 18 28.3955 17.842 28.1142 17.5607C27.8329 17.2794 27.6749 16.8978 27.6749 16.5C27.6441 14.9959 27.9678 13.5057 28.6199 12.15C29.1131 11.175 29.3555 10.0923 29.3249 9C29.3249 8.60218 29.4829 8.22064 29.7642 7.93934C30.0455 7.65804 30.427 7.5 30.8249 7.5C31.2227 7.5 31.6042 7.65804 31.8855 7.93934C32.1668 8.22064 32.3249 8.60218 32.3249 9C32.3556 10.5041 32.0319 11.9943 31.3799 13.35C30.8866 14.325 30.6442 15.4077 30.6749 16.5C30.6749 16.697 30.6361 16.892 30.5607 17.074C30.4853 17.256 30.3748 17.4214 30.2355 17.5607C30.0962 17.6999 29.9309 17.8104 29.7489 17.8858C29.5669 17.9612 29.3718 18 29.1749 18Z" fill="#8F92A3"/>
</svg>
