<svg width="20" height="21" viewBox="0 0 20 21" fill="none" xmlns="http://www.w3.org/2000/svg">
<path d="M10.0001 18.8337C14.6025 18.8337 18.3334 15.1027 18.3334 10.5003C18.3334 5.89795 14.6025 2.16699 10.0001 2.16699C5.39771 2.16699 1.66675 5.89795 1.66675 10.5003C1.66675 15.1027 5.39771 18.8337 10.0001 18.8337Z" stroke="#464646" stroke-width="1.66667" stroke-linecap="round" stroke-linejoin="round"/>
<path d="M7.5 10.5007L9.16667 12.1673L12.5 8.83398" stroke="#464646" stroke-width="1.66667" stroke-linecap="round" stroke-linejoin="round"/>
<path d="M10.0001 18.8337C14.6025 18.8337 18.3334 15.1027 18.3334 10.5003C18.3334 5.89795 14.6025 2.16699 10.0001 2.16699C5.39771 2.16699 1.66675 5.89795 1.66675 10.5003C1.66675 15.1027 5.39771 18.8337 10.0001 18.8337Z" stroke="white" stroke-width="1.66667" stroke-linecap="round" stroke-linejoin="round"/>
<path d="M7.5 10.5007L9.16667 12.1673L12.5 8.83398" stroke="white" stroke-width="1.66667" stroke-linecap="round" stroke-linejoin="round"/>
</svg>
