<svg width="180" height="180" viewBox="0 0 180 180" fill="none" xmlns="http://www.w3.org/2000/svg">
<path d="M116.36 58.8138C110.423 54.9989 104.176 52.5386 97.839 51.4275V48.9365C97.839 44.5534 94.329 41 89.9996 41C85.6702 41 82.1603 44.5534 82.1603 48.9365V51.4275C75.8241 52.5386 69.5767 54.9989 63.6397 58.8138C59.9845 61.163 58.9016 66.0667 61.221 69.7672C63.5414 73.4677 68.3851 74.564 72.0403 72.2159C83.6216 64.7757 96.3767 64.7757 107.958 72.2159C109.26 73.0529 110.714 73.4529 112.151 73.4529C114.746 73.4529 117.285 72.1503 118.778 69.7683C121.099 66.0677 120.016 61.163 116.36 58.8148V58.8138Z" fill="url(#paint0_linear_1126_6169)"/>
<path d="M89.9996 70.4984C74.8342 70.4984 62.539 84.4095 62.539 100.037C62.539 115.665 71.3023 132.398 84.9783 138.869C86.5503 139.614 88.2645 140 90.0007 140C91.7368 140 93.451 139.614 95.0231 138.869C108.699 132.398 117.462 115.543 117.462 100.037C117.462 84.5312 105.167 70.4984 90.0007 70.4984H89.9996Z" fill="url(#paint1_linear_1126_6169)"/>
<path d="M40.6667 129.022H38.9778V127.333C38.9778 127.333 38.9778 118 36 118C33.0222 118 33.0222 127.333 33.0222 127.333V129.022H31.3333C31.3333 129.022 22 129.022 22 132C22 134.978 31.3333 134.978 31.3333 134.978H33.0222V136.667C33.0222 136.667 33.0222 146 36 146C38.9778 146 38.9778 136.667 38.9778 136.667V134.978H40.6667C40.6667 134.978 50 134.978 50 132C50 129.022 40.6667 129.022 40.6667 129.022Z" fill="#1DC973"/>
<path d="M157 55.1714H154.829V53C154.829 53 154.829 41 151 41C147.171 41 147.171 53 147.171 53V55.1714H145C145 55.1714 133 55.1714 133 59C133 62.8286 145 62.8286 145 62.8286H147.171V65C147.171 65 147.171 77 151 77C154.829 77 154.829 65 154.829 65V62.8286H157C157 62.8286 169 62.8286 169 59C169 55.1714 157 55.1714 157 55.1714Z" fill="#1DC973"/>
<path d="M48 113C48 114.657 46.6565 116 45 116C43.3434 116 42 114.657 42 113C42 111.343 43.3434 110 45 110C46.6565 110 48 111.343 48 113Z" fill="#E2E3E9"/>
<path d="M39 104C39 106.205 37.2138 108 35 108C32.7862 108 31 106.214 31 104C31 101.786 32.7862 100 35 100C37.2138 100 39 101.786 39 104Z" fill="#ABADBA"/>
<path d="M141 72C141 73.1027 140.107 74 139 74C137.893 74 137 73.1069 137 72C137 70.8931 137.893 70 139 70C140.107 70 141 70.8931 141 72Z" fill="#E2E3E9"/>
<path d="M165 39C165 40.6541 163.66 42 162 42C160.34 42 159 40.6604 159 39C159 37.3396 160.34 36 162 36C163.66 36 165 37.3396 165 39Z" fill="#ABADBA"/>
<path d="M78 104.999L86.3333 113.333L103 96.666" stroke="white" stroke-width="6" stroke-linecap="round" stroke-linejoin="round"/>
<defs>
<linearGradient id="paint0_linear_1126_6169" x1="90" y1="41" x2="90" y2="140" gradientUnits="userSpaceOnUse">
<stop stop-color="#193BE6"/>
<stop offset="1" stop-color="#0F248A"/>
</linearGradient>
<linearGradient id="paint1_linear_1126_6169" x1="90" y1="41" x2="90" y2="140" gradientUnits="userSpaceOnUse">
<stop stop-color="#193BE6"/>
<stop offset="1" stop-color="#0F248A"/>
</linearGradient>
</defs>
</svg>
