<svg width="16" height="16" viewBox="0 0 16 16" fill="none" xmlns="http://www.w3.org/2000/svg">
<path d="M14 6.49996H13.4769C13.3512 5.13425 12.7199 3.86476 11.7067 2.94047C10.6935 2.01618 9.37147 1.50378 8 1.50378C6.62853 1.50378 5.30654 2.01618 4.29332 2.94047C3.2801 3.86476 2.64876 5.13425 2.52312 6.49996H2C1.86739 6.49996 1.74021 6.55264 1.64645 6.64641C1.55268 6.74017 1.5 6.86735 1.5 6.99996C1.5022 8.18903 1.82943 9.35488 2.44632 10.3714C3.06321 11.388 3.94627 12.2165 5 12.7675V13C5 13.2652 5.10536 13.5195 5.29289 13.7071C5.48043 13.8946 5.73478 14 6 14H10C10.2652 14 10.5196 13.8946 10.7071 13.7071C10.8946 13.5195 11 13.2652 11 13V12.7675C12.0537 12.2165 12.9368 11.388 13.5537 10.3714C14.1706 9.35488 14.4978 8.18903 14.5 6.99996C14.5 6.86735 14.4473 6.74017 14.3536 6.64641C14.2598 6.55264 14.1326 6.49996 14 6.49996ZM12.4712 6.49996H9.2575C9.8637 5.59051 10.7808 4.9334 11.8369 4.65183C12.1822 5.21349 12.3988 5.84464 12.4712 6.49996ZM10.8425 3.51433C10.9571 3.60808 11.0669 3.70704 11.1719 3.81121C9.84085 4.27943 8.74094 5.24171 8.1 6.49871H6.25625C6.56875 5.62273 7.14409 4.86459 7.90364 4.32786C8.6632 3.79114 9.56995 3.502 10.5 3.49996C10.6144 3.49996 10.7287 3.50558 10.8425 3.51433ZM8 2.49996C8.40123 2.50022 8.80062 2.55425 9.1875 2.66058C8.24527 2.89432 7.3813 3.3723 6.68267 4.04635C5.98404 4.7204 5.47544 5.5667 5.20813 6.49996H3.52875C3.65278 5.4005 4.17708 4.38513 5.00169 3.64742C5.82631 2.90972 6.89357 2.50127 8 2.49996ZM10.2913 12C10.204 12.04 10.1302 12.1044 10.0785 12.1853C10.0269 12.2662 9.99963 12.3602 10 12.4562V13H6V12.4562C6.00037 12.3602 5.9731 12.2662 5.92145 12.1853C5.86981 12.1044 5.79597 12.04 5.70875 12C4.82945 11.5953 4.07205 10.9665 3.51257 10.1767C2.95309 9.38683 2.61121 8.4637 2.52125 7.49996H13.4769C13.3871 8.4635 13.0455 9.3865 12.4864 10.1763C11.9272 10.9662 11.1702 11.5951 10.2913 12Z" fill="white"/>
</svg>
