<svg width="40" height="40" viewBox="0 0 40 40" fill="none" xmlns="http://www.w3.org/2000/svg">
<path d="M25 35.833V22.4997C25 22.0576 24.8244 21.6337 24.5118 21.3212C24.1993 21.0086 23.7754 20.833 23.3333 20.833H16.6667C16.2246 20.833 15.8007 21.0086 15.4882 21.3212C15.1756 21.6337 15 22.0576 15 22.4997V35.833" stroke="#193BE6" stroke-width="3.33333" stroke-linecap="round" stroke-linejoin="round"/>
<path d="M5 17.4995C4.99988 17.0146 5.10556 16.5355 5.30965 16.0957C5.51374 15.6558 5.81133 15.2658 6.18167 14.9528L17.8483 4.95446C18.45 4.44597 19.2123 4.16699 20 4.16699C20.7877 4.16699 21.55 4.44597 22.1517 4.95446L33.8183 14.9528C34.1887 15.2658 34.4863 15.6558 34.6904 16.0957C34.8944 16.5355 35.0001 17.0146 35 17.4995V32.4995C35 33.3835 34.6488 34.2314 34.0237 34.8565C33.3986 35.4816 32.5507 35.8328 31.6667 35.8328H8.33333C7.44928 35.8328 6.60143 35.4816 5.97631 34.8565C5.35119 34.2314 5 33.3835 5 32.4995V17.4995Z" stroke="#193BE6" stroke-width="3.33333" stroke-linecap="round" stroke-linejoin="round"/>
</svg>
