<svg width="20" height="21" viewBox="0 0 20 21" fill="none" xmlns="http://www.w3.org/2000/svg">
<path d="M9.09456 11.4048C8.9353 11.2458 8.74549 11.1208 8.53659 11.0371L1.92825 8.38712C1.84935 8.35546 1.78202 8.30042 1.7353 8.22939C1.68858 8.15836 1.66471 8.07474 1.66688 7.98975C1.66906 7.90476 1.69718 7.82247 1.74748 7.75393C1.79777 7.68539 1.86783 7.63387 1.94825 7.60629L17.7816 2.18962C17.8554 2.16295 17.9353 2.15786 18.012 2.17495C18.0886 2.19203 18.1588 2.23059 18.2143 2.2861C18.2698 2.34161 18.3083 2.41179 18.3254 2.48842C18.3425 2.56504 18.3374 2.64495 18.3108 2.71879L12.8941 18.5521C12.8665 18.6325 12.815 18.7026 12.7464 18.7529C12.6779 18.8032 12.5956 18.8313 12.5106 18.8335C12.4256 18.8357 12.342 18.8118 12.271 18.7651C12.2 18.7184 12.1449 18.651 12.1133 18.5721L9.46325 11.9621C9.37924 11.7534 9.25382 11.5638 9.09456 11.4048ZM9.09456 11.4048L18.2116 2.28962" stroke="white" stroke-width="1.66667" stroke-linecap="round" stroke-linejoin="round"/>
</svg>
