<svg width="180" height="180" viewBox="0 0 180 180" fill="none" xmlns="http://www.w3.org/2000/svg">
<path d="M116.36 58.8138C110.423 54.9989 104.176 52.5386 97.839 51.4275V48.9365C97.839 44.5534 94.329 41 89.9996 41C85.6702 41 82.1603 44.5534 82.1603 48.9365V51.4275C75.8241 52.5386 69.5767 54.9989 63.6397 58.8138C59.9845 61.163 58.9016 66.0667 61.221 69.7672C63.5414 73.4677 68.3851 74.564 72.0403 72.2159C83.6216 64.7757 96.3767 64.7757 107.958 72.2159C109.26 73.0529 110.714 73.4529 112.151 73.4529C114.746 73.4529 117.285 72.1503 118.778 69.7683C121.099 66.0677 120.016 61.163 116.36 58.8148V58.8138Z" fill="url(#paint0_linear_1126_14761)"/>
<path d="M89.9996 70.4984C74.8342 70.4984 62.539 84.4095 62.539 100.037C62.539 115.665 71.3023 132.398 84.9783 138.869C86.5503 139.614 88.2645 140 90.0007 140C91.7368 140 93.451 139.614 95.0231 138.869C108.699 132.398 117.462 115.543 117.462 100.037C117.462 84.5312 105.167 70.4984 90.0007 70.4984H89.9996Z" fill="url(#paint1_linear_1126_14761)"/>
<path d="M82 96.8141C82.6819 94.8755 84.0279 93.2409 85.7996 92.1997C87.5712 91.1585 89.6542 90.7779 91.6796 91.1253C93.705 91.4727 95.5421 92.5257 96.8655 94.0978C98.1889 95.6699 98.9132 97.6596 98.9101 99.7146C98.9101 105.516 90.2085 108.416 90.2085 108.416M90.4406 120.018H90.4696" stroke="white" stroke-width="6" stroke-linecap="round" stroke-linejoin="round"/>
<path d="M136 66.4098C136.4 65.2729 137.189 64.3142 138.228 63.7036C139.267 63.0929 140.489 62.8697 141.677 63.0735C142.865 63.2772 143.942 63.8948 144.718 64.8168C145.494 65.7387 145.919 66.9057 145.917 68.1108C145.917 71.513 140.814 73.2141 140.814 73.2141M140.95 80.0184H140.967" stroke="#8F92A3" stroke-width="4" stroke-linecap="round" stroke-linejoin="round"/>
<path d="M40 130.41C40.3999 129.273 41.1893 128.314 42.2283 127.704C43.2674 127.093 44.489 126.87 45.6768 127.073C46.8646 127.277 47.942 127.895 48.7181 128.817C49.4943 129.739 49.9191 130.906 49.9173 132.111C49.9173 135.513 44.814 137.214 44.814 137.214M44.9501 144.018H44.9671" stroke="#ABADBA" stroke-width="4" stroke-linecap="round" stroke-linejoin="round"/>
<defs>
<linearGradient id="paint0_linear_1126_14761" x1="90" y1="41" x2="90" y2="140" gradientUnits="userSpaceOnUse">
<stop stop-color="#E2E3E9"/>
<stop offset="1" stop-color="#ABADBA"/>
</linearGradient>
<linearGradient id="paint1_linear_1126_14761" x1="90" y1="41" x2="90" y2="140" gradientUnits="userSpaceOnUse">
<stop stop-color="#E2E3E9"/>
<stop offset="1" stop-color="#ABADBA"/>
</linearGradient>
</defs>
</svg>
