<svg width="20" height="20" viewBox="0 0 20 20" fill="none" xmlns="http://www.w3.org/2000/svg">
<path d="M10.0001 16.2598C9.85812 16.2598 9.71617 16.2901 9.58408 16.3506L5.73544 18.1113C5.02721 18.4354 4.23712 17.8616 4.32626 17.0879L4.81162 12.8828C4.84489 12.5943 4.75131 12.3057 4.55478 12.0918L1.69052 8.97559C1.16332 8.40211 1.46505 7.4725 2.22861 7.31836L6.37705 6.48145C6.66193 6.42396 6.90817 6.24536 7.05087 5.99219L9.129 2.30566C9.32023 1.96638 9.66018 1.79594 10.0001 1.7959V16.2598Z" fill="#EFF0F5"/>
<path d="M10 1.7959C10.3399 1.7959 10.6798 1.96634 10.8711 2.30566L12.9492 5.99219C13.0919 6.24536 13.3382 6.42396 13.623 6.48145L17.7715 7.31836C18.5351 7.47244 18.8368 8.40208 18.3096 8.97559L15.4453 12.0918C15.2488 12.3057 15.1552 12.5943 15.1885 12.8828L15.6738 17.0879C15.763 17.8616 14.9729 18.4355 14.2646 18.1113L10.416 16.3506C10.2839 16.2901 10.142 16.2598 10 16.2598V1.7959Z" fill="#EFF0F5"/>
</svg>
