<svg width="30" height="30" viewBox="0 0 30 30" fill="none" xmlns="http://www.w3.org/2000/svg">
<path d="M18.75 26.8745V16.8745C18.75 16.543 18.6183 16.225 18.3839 15.9906C18.1495 15.7562 17.8315 15.6245 17.5 15.6245H12.5C12.1685 15.6245 11.8505 15.7562 11.6161 15.9906C11.3817 16.225 11.25 16.543 11.25 16.8745V26.8745" stroke="#C7C9D1" stroke-width="2.5" stroke-linecap="round" stroke-linejoin="round"/>
<path d="M3.75 13.1246C3.74991 12.7609 3.82917 12.4016 3.98223 12.0717C4.1353 11.7419 4.3585 11.4493 4.63625 11.2146L13.3862 3.71584C13.8375 3.33448 14.4092 3.12524 15 3.12524C15.5908 3.12524 16.1625 3.33448 16.6138 3.71584L25.3638 11.2146C25.6415 11.4493 25.8647 11.7419 26.0178 12.0717C26.1708 12.4016 26.2501 12.7609 26.25 13.1246V24.3746C26.25 25.0376 25.9866 25.6735 25.5178 26.1424C25.0489 26.6112 24.413 26.8746 23.75 26.8746H6.25C5.58696 26.8746 4.95107 26.6112 4.48223 26.1424C4.01339 25.6735 3.75 25.0376 3.75 24.3746V13.1246Z" stroke="#C7C9D1" stroke-width="2.5" stroke-linecap="round" stroke-linejoin="round"/>
</svg>
