<svg width="16" height="16" viewBox="0 0 16 16" fill="none" xmlns="http://www.w3.org/2000/svg">
<path d="M5 3.5V1.5C5 1.36739 5.05268 1.24021 5.14645 1.14645C5.24021 1.05268 5.36739 1 5.5 1C5.63261 1 5.75979 1.05268 5.85355 1.14645C5.94732 1.24021 6 1.36739 6 1.5V3.5C6 3.63261 5.94732 3.75979 5.85355 3.85355C5.75979 3.94732 5.63261 4 5.5 4C5.36739 4 5.24021 3.94732 5.14645 3.85355C5.05268 3.75979 5 3.63261 5 3.5ZM7.5 4C7.63261 4 7.75979 3.94732 7.85355 3.85355C7.94732 3.75979 8 3.63261 8 3.5V1.5C8 1.36739 7.94732 1.24021 7.85355 1.14645C7.75979 1.05268 7.63261 1 7.5 1C7.36739 1 7.24021 1.05268 7.14645 1.14645C7.05268 1.24021 7 1.36739 7 1.5V3.5C7 3.63261 7.05268 3.75979 7.14645 3.85355C7.24021 3.94732 7.36739 4 7.5 4ZM9.5 4C9.63261 4 9.75979 3.94732 9.85355 3.85355C9.94732 3.75979 10 3.63261 10 3.5V1.5C10 1.36739 9.94732 1.24021 9.85355 1.14645C9.75979 1.05268 9.63261 1 9.5 1C9.36739 1 9.24021 1.05268 9.14645 1.14645C9.05268 1.24021 9 1.36739 9 1.5V3.5C9 3.63261 9.05268 3.75979 9.14645 3.85355C9.24021 3.94732 9.36739 4 9.5 4ZM15.5 7.5V8C15.4998 8.63597 15.2572 9.24795 14.8217 9.71137C14.3861 10.1748 13.7904 10.4548 13.1556 10.4944C12.8146 11.4591 12.2339 12.3213 11.4681 13H13C13.1326 13 13.2598 13.0527 13.3536 13.1464C13.4473 13.2402 13.5 13.3674 13.5 13.5C13.5 13.6326 13.4473 13.7598 13.3536 13.8536C13.2598 13.9473 13.1326 14 13 14H2C1.86739 14 1.74021 13.9473 1.64645 13.8536C1.55268 13.7598 1.5 13.6326 1.5 13.5C1.5 13.3674 1.55268 13.2402 1.64645 13.1464C1.74021 13.0527 1.86739 13 2 13H3.53375C2.89581 12.4364 2.38468 11.7439 2.03411 10.9682C1.68354 10.1925 1.50149 9.35124 1.5 8.5V5.5C1.5 5.36739 1.55268 5.24021 1.64645 5.14645C1.74021 5.05268 1.86739 5 2 5H13C13.663 5 14.2989 5.26339 14.7678 5.73223C15.2366 6.20107 15.5 6.83696 15.5 7.5ZM12.5 6H2.5V8.5C2.50193 9.4388 2.76723 10.3582 3.26575 11.1537C3.76427 11.9492 4.47599 12.5889 5.32 13H9.68C10.524 12.5889 11.2357 11.9492 11.7343 11.1537C12.2328 10.3582 12.4981 9.4388 12.5 8.5V6ZM14.5 7.5C14.4999 7.18989 14.4037 6.88743 14.2246 6.63425C14.0455 6.38107 13.7924 6.18962 13.5 6.08625V8.5C13.4996 8.81398 13.4745 9.12745 13.425 9.4375C13.7352 9.34585 14.0075 9.15636 14.2013 8.8973C14.395 8.63824 14.4998 8.32349 14.5 8V7.5Z" fill="#73778C"/>
</svg>
