<svg width="40" height="40" viewBox="0 0 40 40" fill="none" xmlns="http://www.w3.org/2000/svg">
<path d="M33.3332 16.6663C33.3332 24.988 24.1015 33.6547 21.0015 36.3313C20.7127 36.5485 20.3612 36.6659 19.9998 36.6659C19.6385 36.6659 19.287 36.5485 18.9982 36.3313C15.8982 33.6547 6.6665 24.988 6.6665 16.6663C6.6665 13.1301 8.07126 9.73874 10.5717 7.23825C13.0722 4.73777 16.4636 3.33301 19.9998 3.33301C23.5361 3.33301 26.9274 4.73777 29.4279 7.23825C31.9284 9.73874 33.3332 13.1301 33.3332 16.6663Z" fill="#193BE6" stroke="#193BE6" stroke-width="3.33333" stroke-linecap="round" stroke-linejoin="round"/>
<path d="M20 21.666C22.7614 21.666 25 19.4274 25 16.666C25 13.9046 22.7614 11.666 20 11.666C17.2386 11.666 15 13.9046 15 16.666C15 19.4274 17.2386 21.666 20 21.666Z" fill="white"/>
</svg>
