<svg width="48" height="48" viewBox="0 0 48 48" fill="none" xmlns="http://www.w3.org/2000/svg">
<path d="M11.8048 14.0551C11.6074 14.0562 11.4117 14.0184 11.229 13.9437C11.0462 13.8691 10.88 13.7591 10.7398 13.6201L8.62485 11.4901C8.37911 11.2031 8.2507 10.834 8.26528 10.4565C8.27986 10.079 8.43636 9.72089 8.7035 9.45375C8.97064 9.1866 9.32875 9.0301 9.70627 9.01552C10.0838 9.00094 10.4529 9.12935 10.7398 9.37509L12.8698 11.4901C13.0104 11.6295 13.122 11.7954 13.1982 11.9782C13.2743 12.161 13.3135 12.3571 13.3135 12.5551C13.3135 12.7531 13.2743 12.9492 13.1982 13.132C13.122 13.3147 13.0104 13.4806 12.8698 13.6201C12.7297 13.7591 12.5635 13.8691 12.3807 13.9437C12.1979 14.0184 12.0023 14.0562 11.8048 14.0551Z" fill="#8F92A3"/>
<path d="M38.3249 40.575C38.1264 40.5742 37.9301 40.534 37.7473 40.4568C37.5644 40.3795 37.3988 40.2668 37.2599 40.125L30.8999 33.765C30.7339 33.6342 30.5974 33.4696 30.4994 33.2823C30.4014 33.095 30.3442 32.8891 30.3314 32.6781C30.3186 32.467 30.3505 32.2557 30.4251 32.0579C30.4997 31.8601 30.6152 31.6803 30.7642 31.5303C30.9131 31.3803 31.0921 31.2634 31.2894 31.1874C31.4866 31.1114 31.6978 31.078 31.9089 31.0893C32.12 31.1006 32.3263 31.1564 32.5143 31.2531C32.7023 31.3497 32.8678 31.485 32.9999 31.65L39.3599 38.01C39.6392 38.2911 39.796 38.6713 39.796 39.0675C39.796 39.4638 39.6392 39.844 39.3599 40.125C39.0866 40.4041 38.7153 40.5655 38.3249 40.575Z" fill="#8F92A3"/>
<path d="M32.9997 25.2751C32.3871 24.6835 31.6557 24.229 30.8539 23.9419C30.0522 23.6549 29.1985 23.5417 28.3497 23.6101C28.3497 23.4601 28.3497 23.3101 28.3497 23.1601C28.3503 22.3719 28.1956 21.5914 27.8945 20.863C27.5933 20.1346 27.1517 19.4727 26.5947 18.9151C25.817 18.1561 24.8517 17.6173 23.7975 17.3537C22.7433 17.0902 21.638 17.1113 20.5947 17.4151C20.913 16.373 20.9416 15.264 20.6773 14.2069C20.413 13.1499 19.8659 12.1847 19.0947 11.4151C17.9507 10.3239 16.4306 9.71509 14.8497 9.71509C13.2687 9.71509 11.7486 10.3239 10.6047 11.4151C9.72763 12.2585 9.12777 13.3487 8.88466 14.5409C8.64154 15.7332 8.76666 16.9712 9.24342 18.0907C9.72018 19.2101 10.526 20.1582 11.5541 20.8091C12.5822 21.46 13.7838 21.7829 14.9997 21.7351C15.574 21.7198 16.1439 21.629 16.6947 21.4651C16.5212 22.0136 16.4302 22.5848 16.4247 23.1601C16.4247 24.7514 17.0568 26.2775 18.182 27.4027C19.3072 28.5279 20.8334 29.1601 22.4247 29.1601C22.5596 29.1674 22.6948 29.1674 22.8297 29.1601C22.7599 30.1654 22.9446 31.1721 23.3665 32.0873C23.7884 33.0025 24.434 33.7966 25.2438 34.3965C26.0536 34.9963 27.0014 35.3826 27.9998 35.5195C28.9982 35.6565 30.015 35.5398 30.9564 35.1802C31.8978 34.8205 32.7335 34.2296 33.3862 33.4619C34.039 32.6941 34.488 31.7743 34.6916 30.7874C34.8951 29.8004 34.8469 28.7781 34.5512 27.8147C34.2555 26.8513 33.7219 25.9779 32.9997 25.2751Z" fill="#E88758"/>
</svg>
