<svg width="116" height="116" viewBox="0 0 116 116" fill="none" xmlns="http://www.w3.org/2000/svg">
<path d="M28.7301 34.1313C28.2563 34.1341 27.7866 34.0433 27.348 33.8641C26.9094 33.685 26.5105 33.421 26.1741 33.0873L21.0981 27.9753C20.5083 27.2867 20.2001 26.4008 20.2351 25.4947C20.2701 24.5887 20.6457 23.7292 21.2868 23.0881C21.928 22.447 22.7874 22.0714 23.6935 22.0364C24.5995 22.0014 25.4854 22.3096 26.1741 22.8993L31.2861 27.9753C31.6235 28.31 31.8913 28.7082 32.0741 29.1469C32.2568 29.5856 32.3509 30.0561 32.3509 30.5313C32.3509 31.0066 32.2568 31.4771 32.0741 31.9158C31.8913 32.3545 31.6235 32.7527 31.2861 33.0873C30.9497 33.421 30.5507 33.685 30.1121 33.8641C29.6735 34.0433 29.2039 34.1341 28.7301 34.1313V34.1313Z" fill="#8F92A3"/>
<path d="M92.3785 97.7792C91.9022 97.7773 91.431 97.6808 90.9923 97.4954C90.5535 97.31 90.1559 97.0394 89.8225 96.6992L74.5585 81.4352C74.1601 81.1211 73.8326 80.7263 73.5974 80.2767C73.3623 79.8271 73.2249 79.3329 73.1941 78.8265C73.1634 78.32 73.24 77.8128 73.419 77.3381C73.5981 76.8634 73.8754 76.4318 74.2329 76.0718C74.5904 75.7118 75.0199 75.4314 75.4933 75.249C75.9668 75.0666 76.4734 74.9863 76.9801 75.0135C77.4867 75.0406 77.9819 75.1745 78.4331 75.4065C78.8844 75.6384 79.2815 75.9631 79.5985 76.3592L94.8625 91.6232C95.533 92.2977 95.9093 93.2102 95.9093 94.1612C95.9093 95.1123 95.533 96.0247 94.8625 96.6992C94.2067 97.3689 93.3155 97.7563 92.3785 97.7792V97.7792Z" fill="#8F92A3"/>
<path d="M79.598 61.0593C78.1279 59.6394 76.3724 58.5487 74.4482 57.8597C72.524 57.1708 70.4752 56.8993 68.438 57.0633C68.438 56.7033 68.438 56.3433 68.438 55.9833C68.4395 54.0917 68.0683 52.2184 67.3456 50.4703C66.6229 48.7222 65.5628 47.1336 64.226 45.7953C62.3596 43.9737 60.0429 42.6806 57.5128 42.048C54.9827 41.4155 52.33 41.4663 49.826 42.1953C50.59 39.6944 50.6585 37.0327 50.0243 34.4958C49.3901 31.9588 48.077 29.6425 46.226 27.7953C43.4806 25.1764 39.8322 23.7153 36.038 23.7153C32.2438 23.7153 28.5954 25.1764 25.85 27.7953C23.7451 29.8196 22.3055 32.436 21.722 35.2974C21.1385 38.1587 21.4388 41.1299 22.583 43.8167C23.7273 46.5035 25.6613 48.7789 28.1287 50.341C30.596 51.9031 33.48 52.6782 36.398 52.5633C37.7765 52.5266 39.1443 52.3087 40.466 51.9153C40.0496 53.2317 39.8312 54.6027 39.818 55.9833C39.818 59.8025 41.3351 63.4652 44.0357 66.1657C46.7362 68.8662 50.3989 70.3833 54.218 70.3833C54.5418 70.401 54.8662 70.401 55.19 70.3833C55.0227 72.7961 55.4658 75.2122 56.4784 77.4086C57.491 79.605 59.0405 81.511 60.984 82.9507C62.9274 84.3903 65.2022 85.3173 67.5983 85.646C69.9945 85.9747 72.4348 85.6946 74.6942 84.8315C76.9536 83.9684 78.9591 82.5502 80.5258 80.7076C82.0925 78.8651 83.1699 76.6576 83.6586 74.2888C84.1472 71.9201 84.0313 69.4665 83.3216 67.1543C82.612 64.8422 81.3314 62.7461 79.598 61.0593Z" fill="#E88758"/>
</svg>
