<svg width="24" height="24" viewBox="0 0 24 24" fill="none" xmlns="http://www.w3.org/2000/svg">
<path d="M18 15H15.75C15.5511 15 15.3603 14.921 15.2197 14.7803C15.079 14.6397 15 14.4489 15 14.25C15 14.0511 15.079 13.8603 15.2197 13.7197C15.3603 13.579 15.5511 13.5 15.75 13.5H18C18.3978 13.5 18.7794 13.342 19.0607 13.0607C19.342 12.7794 19.5 12.3978 19.5 12C19.5 11.6022 19.342 11.2206 19.0607 10.9393C18.7794 10.658 18.3978 10.5 18 10.5H15.75C15.5511 10.5 15.3603 10.421 15.2197 10.2803C15.079 10.1397 15 9.94891 15 9.75C15 9.55109 15.079 9.36032 15.2197 9.21967C15.3603 9.07902 15.5511 9 15.75 9H18C18.7956 9 19.5587 9.31607 20.1213 9.87868C20.6839 10.4413 21 11.2044 21 12C21 12.7956 20.6839 13.5587 20.1213 14.1213C19.5587 14.6839 18.7956 15 18 15Z" fill="#E2E3E9"/>
<path d="M15.75 7.5H3.75C3.55109 7.5 3.36032 7.57902 3.21967 7.71967C3.07902 7.86032 3 8.05109 3 8.25V13.455C3.00198 15.0576 3.6395 16.594 4.77273 17.7273C5.90596 18.8605 7.44238 19.498 9.045 19.5H10.455C12.0576 19.498 13.594 18.8605 14.7273 17.7273C15.8605 16.594 16.498 15.0576 16.5 13.455V8.25C16.5 8.05109 16.421 7.86032 16.2803 7.71967C16.1397 7.57902 15.9489 7.5 15.75 7.5Z" fill="#E2E3E9"/>
<path d="M12.75 21.75H6.75C6.55109 21.75 6.36032 21.671 6.21967 21.5303C6.07902 21.3897 6 21.1989 6 21C6 20.8011 6.07902 20.6103 6.21967 20.4697C6.36032 20.329 6.55109 20.25 6.75 20.25H12.75C12.9489 20.25 13.1397 20.329 13.2803 20.4697C13.421 20.6103 13.5 20.8011 13.5 21C13.5 21.1989 13.421 21.3897 13.2803 21.5303C13.1397 21.671 12.9489 21.75 12.75 21.75Z" fill="#8F92A3"/>
<path d="M6.42001 6.75C6.2211 6.75 6.03033 6.67098 5.88968 6.53033C5.74903 6.38968 5.67001 6.19891 5.67001 6C5.65813 5.37782 5.79168 4.76147 6.06001 4.2C6.24894 3.82887 6.34177 3.41628 6.33001 3C6.33001 2.80109 6.40903 2.61032 6.54968 2.46967C6.69033 2.32902 6.8811 2.25 7.08001 2.25C7.27892 2.25 7.46969 2.32902 7.61034 2.46967C7.75099 2.61032 7.83001 2.80109 7.83001 3C7.84188 3.62218 7.70834 4.23853 7.44001 4.8C7.25108 5.17113 7.15824 5.58372 7.17001 6C7.17001 6.19891 7.09099 6.38968 6.95034 6.53033C6.80969 6.67098 6.61892 6.75 6.42001 6.75Z" fill="#8F92A3"/>
<path d="M9.42001 6.75C9.2211 6.75 9.03033 6.67098 8.88968 6.53033C8.74903 6.38968 8.67001 6.19891 8.67001 6C8.65813 5.37782 8.79168 4.76147 9.06001 4.2C9.24894 3.82887 9.34177 3.41628 9.33001 3C9.33001 2.80109 9.40903 2.61032 9.54968 2.46967C9.69033 2.32902 9.8811 2.25 10.08 2.25C10.2789 2.25 10.4697 2.32902 10.6103 2.46967C10.751 2.61032 10.83 2.80109 10.83 3C10.8419 3.62218 10.7083 4.23853 10.44 4.8C10.2511 5.17113 10.1582 5.58372 10.17 6C10.17 6.19891 10.091 6.38968 9.95034 6.53033C9.80969 6.67098 9.61892 6.75 9.42001 6.75Z" fill="#8F92A3"/>
<path d="M12.42 6.75C12.2211 6.75 12.0303 6.67098 11.8897 6.53033C11.749 6.38968 11.67 6.19891 11.67 6C11.6581 5.37782 11.7917 4.76147 12.06 4.2C12.2489 3.82887 12.3418 3.41628 12.33 3C12.33 2.80109 12.409 2.61032 12.5497 2.46967C12.6903 2.32902 12.8811 2.25 13.08 2.25C13.2789 2.25 13.4697 2.32902 13.6103 2.46967C13.751 2.61032 13.83 2.80109 13.83 3C13.8419 3.62218 13.7083 4.23853 13.44 4.8C13.2511 5.17113 13.1582 5.58372 13.17 6C13.17 6.19891 13.091 6.38968 12.9503 6.53033C12.8097 6.67098 12.6189 6.75 12.42 6.75Z" fill="#8F92A3"/>
</svg>
