<svg width="116" height="116" viewBox="0 0 116 116" fill="none" xmlns="http://www.w3.org/2000/svg">
<path d="M57.9992 47.2001C63.9639 47.2001 68.7992 42.3648 68.7992 36.4001C68.7992 30.4354 63.9639 25.6001 57.9992 25.6001C52.0345 25.6001 47.1992 30.4354 47.1992 36.4001C47.1992 42.3648 52.0345 47.2001 57.9992 47.2001Z" fill="#C7C9D1"/>
<path d="M97.5988 76H93.9988C92.3428 55.84 76.9348 40 58.1788 40C39.4228 40 23.8348 55.84 22.1788 76H18.3988C17.444 76 16.5284 76.3793 15.8532 77.0544C15.1781 77.7295 14.7988 78.6452 14.7988 79.6C14.7988 80.5548 15.1781 81.4705 15.8532 82.1456C16.5284 82.8207 17.444 83.2 18.3988 83.2H97.5988C98.5536 83.2 99.4693 82.8207 100.144 82.1456C100.82 81.4705 101.199 80.5548 101.199 79.6C101.199 78.6452 100.82 77.7295 100.144 77.0544C99.4693 76.3793 98.5536 76 97.5988 76Z" fill="#8F92A3"/>
<path d="M90.398 94.0003H25.598C24.6433 94.0003 23.7276 93.621 23.0525 92.9459C22.3773 92.2707 21.998 91.3551 21.998 90.4003C21.998 89.4455 22.3773 88.5298 23.0525 87.8547C23.7276 87.1796 24.6433 86.8003 25.598 86.8003H90.398C91.3528 86.8003 92.2685 87.1796 92.9436 87.8547C93.6188 88.5298 93.998 89.4455 93.998 90.4003C93.998 91.3551 93.6188 92.2707 92.9436 92.9459C92.2685 93.621 91.3528 94.0003 90.398 94.0003Z" fill="#C7C9D1"/>
</svg>
