<svg width="48" height="48" viewBox="0 0 48 48" fill="none" xmlns="http://www.w3.org/2000/svg">
<path d="M24 19.5C26.4853 19.5 28.5 17.4853 28.5 15C28.5 12.5147 26.4853 10.5 24 10.5C21.5147 10.5 19.5 12.5147 19.5 15C19.5 17.4853 21.5147 19.5 24 19.5Z" fill="#C7C9D1"/>
<path d="M40.5 31.5H39C38.31 23.1 31.89 16.5 24.075 16.5C16.26 16.5 9.765 23.1 9.075 31.5H7.5C7.10218 31.5 6.72064 31.658 6.43934 31.9393C6.15804 32.2206 6 32.6022 6 33C6 33.3978 6.15804 33.7794 6.43934 34.0607C6.72064 34.342 7.10218 34.5 7.5 34.5H40.5C40.8978 34.5 41.2794 34.342 41.5607 34.0607C41.842 33.7794 42 33.3978 42 33C42 32.6022 41.842 32.2206 41.5607 31.9393C41.2794 31.658 40.8978 31.5 40.5 31.5Z" fill="#8F92A3"/>
<path d="M37.5 39H10.5C10.1022 39 9.72064 38.842 9.43934 38.5607C9.15804 38.2794 9 37.8978 9 37.5C9 37.1022 9.15804 36.7206 9.43934 36.4393C9.72064 36.158 10.1022 36 10.5 36H37.5C37.8978 36 38.2794 36.158 38.5607 36.4393C38.842 36.7206 39 37.1022 39 37.5C39 37.8978 38.842 38.2794 38.5607 38.5607C38.2794 38.842 37.8978 39 37.5 39Z" fill="#C7C9D1"/>
</svg>
