<svg width="153" height="152" viewBox="0 0 153 152" fill="none" xmlns="http://www.w3.org/2000/svg">
<g filter="url(#filter0_dd_1520_6187)">
<circle cx="76.6553" cy="69.75" r="63.75" fill="#4762EB"/>
<path d="M138.445 85.5C139.725 80.4626 140.405 75.1857 140.405 69.75C140.405 34.5418 111.863 6 76.6553 6C41.4471 6 12.9053 34.5418 12.9053 69.75C12.9053 75.1857 13.5856 80.4626 14.8657 85.5H138.445Z" fill="#193BE6"/>
<path d="M12.9092 69H140.401C139.999 34.1374 111.613 6 76.6549 6C41.6971 6 13.3111 34.1374 12.9092 69Z" fill="url(#paint0_linear_1520_6187)"/>
<g filter="url(#filter1_ddd_1520_6187)">
<path d="M86.9156 33C87.0864 32.5188 87.1677 32.0105 87.1556 31.5C87.1556 30.3065 86.6815 29.1619 85.8375 28.318C84.9936 27.4741 83.849 27 82.6556 27C81.5475 27.0025 80.4793 27.4138 79.6556 28.155C78.8114 27.4575 77.7506 27.076 76.6556 27.076C75.5605 27.076 74.4997 27.4575 73.6556 28.155C73.0087 27.5764 72.2082 27.1972 71.3507 27.0631C70.4932 26.929 69.6153 27.0458 68.8226 27.3993C68.0299 27.7528 67.3564 28.328 66.8832 29.0556C66.41 29.7832 66.1573 30.6321 66.1556 31.5C66.1534 31.984 66.2294 32.4652 66.3806 32.925C62.2785 37.2198 60.0409 42.9621 60.1556 48.9C60.1556 54.285 67.4006 58.5 76.6556 58.5C85.9106 58.5 93.1556 54.285 93.1556 48.9C93.2463 42.9858 91.0046 37.2738 86.9156 33Z" fill="#FFD89E"/>
<path d="M82.6522 25.5L82.6556 25.5C84.2469 25.5 85.773 26.1321 86.8982 27.2574C88.0192 28.3784 88.6509 29.8974 88.6555 31.4822C88.6632 31.8515 88.6348 32.2198 88.5712 32.5821C92.567 37.063 94.7453 42.8889 94.6556 48.912C94.6502 52.341 92.3432 55.1468 89.1305 57.0159C85.889 58.9019 81.4915 60 76.6556 60C71.8196 60 67.4222 58.9019 64.1806 57.0159C60.9689 55.1473 58.6623 52.3426 58.6556 48.915C58.5422 42.8621 60.7203 37.0005 64.7355 32.4962C64.6809 32.1653 64.6541 31.8299 64.6556 31.4934M82.6522 25.5L66.1556 31.5M82.6522 25.5C81.5789 25.5024 80.5337 25.7925 79.6211 26.3298M82.6522 25.5L79.6211 26.3298M64.6556 31.4934L66.1556 31.5M64.6556 31.4934C64.6556 31.4946 64.6556 31.4958 64.6556 31.497L66.1556 31.5M64.6556 31.4934C64.6586 30.3374 64.9955 29.2069 65.6258 28.2378C66.2567 27.2677 67.1547 26.5008 68.2116 26.0294C69.2685 25.558 70.4391 25.4023 71.5825 25.5811C72.3283 25.6977 73.0418 25.9535 73.6872 26.3313M66.1556 31.5C66.1573 30.6321 66.41 29.7832 66.8832 29.0556C67.3564 28.328 68.0299 27.7528 68.8226 27.3993C69.6153 27.0458 70.4932 26.929 71.3507 27.0631C72.2082 27.1972 73.0087 27.5764 73.6556 28.155M73.6872 26.3313C73.3396 26.5205 73.0089 26.7435 72.7002 26.9986L73.6556 28.155M73.6872 26.3313C74.5926 25.8387 75.6123 25.576 76.6556 25.576C77.6977 25.576 78.7164 25.8381 79.6211 26.3298M73.6872 26.3313C74.0311 26.5327 74.3557 26.7688 74.6556 27.037L73.6556 28.155M73.6556 28.155L79.6211 26.3298" stroke="white" stroke-width="3"/>
</g>
<path d="M86.9156 33C87.0864 32.5188 87.1677 32.0105 87.1556 31.5C87.1556 30.3065 86.6815 29.1619 85.8375 28.318C84.9936 27.4741 83.849 27 82.6556 27C81.5475 27.0025 80.4793 27.4138 79.6556 28.155C78.8114 27.4575 77.7506 27.076 76.6556 27.076C75.5605 27.076 74.4997 27.4575 73.6556 28.155C73.0087 27.5764 72.2082 27.1972 71.3507 27.0631C70.4932 26.929 69.6153 27.0458 68.8226 27.3993C68.0299 27.7528 67.3564 28.328 66.8832 29.0556C66.41 29.7832 66.1573 30.6321 66.1556 31.5C66.1534 31.984 66.2294 32.4652 66.3806 32.925C62.2785 37.2198 60.0409 42.9621 60.1556 48.9C60.1556 54.285 67.4006 58.5 76.6556 58.5C85.9106 58.5 93.1556 54.285 93.1556 48.9C93.2463 42.9858 91.0046 37.2738 86.9156 33Z" fill="#FFD89E"/>
<path d="M76.6553 39C76.2574 39 75.8759 38.842 75.5946 38.5607C75.3133 38.2794 75.1553 37.8978 75.1553 37.5V34.5C75.1553 34.1022 75.3133 33.7206 75.5946 33.4393C75.8759 33.158 76.2574 33 76.6553 33C77.0531 33 77.4346 33.158 77.7159 33.4393C77.9972 33.7206 78.1553 34.1022 78.1553 34.5V37.5C78.1553 37.8978 77.9972 38.2794 77.7159 38.5607C77.4346 38.842 77.0531 39 76.6553 39Z" fill="#FFCB7C"/>
<path d="M72.1553 39C71.7574 39 71.3759 38.842 71.0946 38.5607C70.8133 38.2794 70.6553 37.8978 70.6553 37.5V34.5C70.6553 34.1022 70.8133 33.7206 71.0946 33.4393C71.3759 33.158 71.7574 33 72.1553 33C72.5531 33 72.9346 33.158 73.2159 33.4393C73.4972 33.7206 73.6553 34.1022 73.6553 34.5V37.5C73.6553 37.8978 73.4972 38.2794 73.2159 38.5607C72.9346 38.842 72.5531 39 72.1553 39Z" fill="#FFCB7C"/>
<path d="M81.1553 39C80.7574 39 80.3759 38.842 80.0946 38.5607C79.8133 38.2794 79.6553 37.8978 79.6553 37.5V34.5C79.6553 34.1022 79.8133 33.7206 80.0946 33.4393C80.3759 33.158 80.7574 33 81.1553 33C81.5531 33 81.9346 33.158 82.2159 33.4393C82.4972 33.7206 82.6553 34.1022 82.6553 34.5V37.5C82.6553 37.8978 82.4972 38.2794 82.2159 38.5607C81.9346 38.842 81.5531 39 81.1553 39Z" fill="#FFCB7C"/>
</g>
<defs>
<filter id="filter0_dd_1520_6187" x="0.905273" y="0" width="151.5" height="151.5" filterUnits="userSpaceOnUse" color-interpolation-filters="sRGB">
<feFlood flood-opacity="0" result="BackgroundImageFix"/>
<feColorMatrix in="SourceAlpha" type="matrix" values="0 0 0 0 0 0 0 0 0 0 0 0 0 0 0 0 0 0 127 0" result="hardAlpha"/>
<feOffset/>
<feGaussianBlur stdDeviation="2"/>
<feComposite in2="hardAlpha" operator="out"/>
<feColorMatrix type="matrix" values="0 0 0 0 0 0 0 0 0 0 0 0 0 0 0 0 0 0 0.05 0"/>
<feBlend mode="normal" in2="BackgroundImageFix" result="effect1_dropShadow_1520_6187"/>
<feColorMatrix in="SourceAlpha" type="matrix" values="0 0 0 0 0 0 0 0 0 0 0 0 0 0 0 0 0 0 127 0" result="hardAlpha"/>
<feOffset dy="6"/>
<feGaussianBlur stdDeviation="6"/>
<feComposite in2="hardAlpha" operator="out"/>
<feColorMatrix type="matrix" values="0 0 0 0 0 0 0 0 0 0 0 0 0 0 0 0 0 0 0.1 0"/>
<feBlend mode="normal" in2="effect1_dropShadow_1520_6187" result="effect2_dropShadow_1520_6187"/>
<feBlend mode="normal" in="SourceGraphic" in2="effect2_dropShadow_1520_6187" result="shape"/>
</filter>
<filter id="filter1_ddd_1520_6187" x="55.1514" y="23" width="43.0068" height="41.5" filterUnits="userSpaceOnUse" color-interpolation-filters="sRGB">
<feFlood flood-opacity="0" result="BackgroundImageFix"/>
<feColorMatrix in="SourceAlpha" type="matrix" values="0 0 0 0 0 0 0 0 0 0 0 0 0 0 0 0 0 0 127 0" result="hardAlpha"/>
<feOffset/>
<feGaussianBlur stdDeviation="0.5"/>
<feComposite in2="hardAlpha" operator="out"/>
<feColorMatrix type="matrix" values="0 0 0 0 0 0 0 0 0 0 0 0 0 0 0 0 0 0 0.08 0"/>
<feBlend mode="normal" in2="BackgroundImageFix" result="effect1_dropShadow_1520_6187"/>
<feColorMatrix in="SourceAlpha" type="matrix" values="0 0 0 0 0 0 0 0 0 0 0 0 0 0 0 0 0 0 127 0" result="hardAlpha"/>
<feOffset/>
<feGaussianBlur stdDeviation="0.5"/>
<feComposite in2="hardAlpha" operator="out"/>
<feColorMatrix type="matrix" values="0 0 0 0 0 0 0 0 0 0 0 0 0 0 0 0 0 0 0.08 0"/>
<feBlend mode="normal" in2="effect1_dropShadow_1520_6187" result="effect2_dropShadow_1520_6187"/>
<feColorMatrix in="SourceAlpha" type="matrix" values="0 0 0 0 0 0 0 0 0 0 0 0 0 0 0 0 0 0 127 0" result="hardAlpha"/>
<feOffset dy="1"/>
<feGaussianBlur stdDeviation="1"/>
<feComposite in2="hardAlpha" operator="out"/>
<feColorMatrix type="matrix" values="0 0 0 0 0 0 0 0 0 0 0 0 0 0 0 0 0 0 0.12 0"/>
<feBlend mode="normal" in2="effect2_dropShadow_1520_6187" result="effect3_dropShadow_1520_6187"/>
<feBlend mode="normal" in="SourceGraphic" in2="effect3_dropShadow_1520_6187" result="shape"/>
</filter>
<linearGradient id="paint0_linear_1520_6187" x1="76.6549" y1="6" x2="76.6549" y2="69" gradientUnits="userSpaceOnUse">
<stop stop-color="#FAFBFE"/>
<stop offset="1" stop-color="#E8EBFC"/>
</linearGradient>
</defs>
</svg>
