<svg width="48" height="48" viewBox="0 0 48 48" fill="none" xmlns="http://www.w3.org/2000/svg">
<path d="M24 6C19.6239 6 15.4271 7.73839 12.3327 10.8327C9.23839 13.9271 7.5 18.1239 7.5 22.5C7.5 22.8978 7.65804 23.2794 7.93934 23.5607C8.22064 23.842 8.60218 24 9 24H39C39.3978 24 39.7794 23.842 40.0607 23.5607C40.342 23.2794 40.5 22.8978 40.5 22.5C40.5 18.1239 38.7616 13.9271 35.6673 10.8327C32.5729 7.73839 28.3761 6 24 6Z" fill="#F7EDE3"/>
<path d="M19.5 15H18C17.6022 15 17.2206 14.842 16.9393 14.5607C16.658 14.2794 16.5 13.8978 16.5 13.5C16.5 13.1022 16.658 12.7206 16.9393 12.4393C17.2206 12.158 17.6022 12 18 12H19.5C19.8978 12 20.2794 12.158 20.5607 12.4393C20.842 12.7206 21 13.1022 21 13.5C21 13.8978 20.842 14.2794 20.5607 14.5607C20.2794 14.842 19.8978 15 19.5 15Z" fill="#F0E0D1"/>
<path d="M30 15H28.5C28.1022 15 27.7206 14.842 27.4393 14.5607C27.158 14.2794 27 13.8978 27 13.5C27 13.1022 27.158 12.7206 27.4393 12.4393C27.7206 12.158 28.1022 12 28.5 12H30C30.3978 12 30.7794 12.158 31.0607 12.4393C31.342 12.7206 31.5 13.1022 31.5 13.5C31.5 13.8978 31.342 14.2794 31.0607 14.5607C30.7794 14.842 30.3978 15 30 15Z" fill="#F0E0D1"/>
<path d="M15 19.5H13.5C13.1022 19.5 12.7206 19.342 12.4393 19.0607C12.158 18.7794 12 18.3978 12 18C12 17.6022 12.158 17.2206 12.4393 16.9393C12.7206 16.658 13.1022 16.5 13.5 16.5H15C15.3978 16.5 15.7794 16.658 16.0607 16.9393C16.342 17.2206 16.5 17.6022 16.5 18C16.5 18.3978 16.342 18.7794 16.0607 19.0607C15.7794 19.342 15.3978 19.5 15 19.5Z" fill="#F0E0D1"/>
<path d="M21 19.5H19.5C19.1022 19.5 18.7206 19.342 18.4393 19.0607C18.158 18.7794 18 18.3978 18 18C18 17.6022 18.158 17.2206 18.4393 16.9393C18.7206 16.658 19.1022 16.5 19.5 16.5H21C21.3978 16.5 21.7794 16.658 22.0607 16.9393C22.342 17.2206 22.5 17.6022 22.5 18C22.5 18.3978 22.342 18.7794 22.0607 19.0607C21.7794 19.342 21.3978 19.5 21 19.5Z" fill="#F0E0D1"/>
<path d="M28.5 19.5H27C26.6022 19.5 26.2206 19.342 25.9393 19.0607C25.658 18.7794 25.5 18.3978 25.5 18C25.5 17.6022 25.658 17.2206 25.9393 16.9393C26.2206 16.658 26.6022 16.5 27 16.5H28.5C28.8978 16.5 29.2794 16.658 29.5607 16.9393C29.842 17.2206 30 17.6022 30 18C30 18.3978 29.842 18.7794 29.5607 19.0607C29.2794 19.342 28.8978 19.5 28.5 19.5Z" fill="#F0E0D1"/>
<path d="M34.5 19.5H33C32.6022 19.5 32.2206 19.342 31.9393 19.0607C31.658 18.7794 31.5 18.3978 31.5 18C31.5 17.6022 31.658 17.2206 31.9393 16.9393C32.2206 16.658 32.6022 16.5 33 16.5H34.5C34.8978 16.5 35.2794 16.658 35.5607 16.9393C35.842 17.2206 36 17.6022 36 18C36 18.3978 35.842 18.7794 35.5607 19.0607C35.2794 19.342 34.8978 19.5 34.5 19.5Z" fill="#F0E0D1"/>
<path d="M40.965 28.5H28.5C28.1022 28.5 27.7206 28.342 27.4393 28.0607C27.158 27.7794 27 27.3978 27 27C27 26.6022 27.158 26.2206 27.4393 25.9393C27.7206 25.658 28.1022 25.5 28.5 25.5H41.745C41.9136 24.5089 41.9989 23.5054 42 22.5C42 22.1022 41.842 21.7206 41.5607 21.4393C41.2794 21.158 40.8978 21 40.5 21H7.5C7.10218 21 6.72064 21.158 6.43934 21.4393C6.15804 21.7206 6 22.1022 6 22.5C6.00201 26.0062 7.02799 29.4355 8.95192 32.3667C10.8759 35.2979 13.614 37.6034 16.83 39H16.5C16.1022 39 15.7206 39.158 15.4393 39.4393C15.158 39.7206 15 40.1022 15 40.5C15 40.8978 15.158 41.2794 15.4393 41.5607C15.7206 41.842 16.1022 42 16.5 42H31.5C31.8978 42 32.2794 41.842 32.5607 41.5607C32.842 41.2794 33 40.8978 33 40.5C33 40.1022 32.842 39.7206 32.5607 39.4393C32.2794 39.158 31.8978 39 31.5 39H31.17C33.4324 38.0103 35.4685 36.5683 37.153 34.7626C38.8374 32.9569 40.1347 30.8257 40.965 28.5Z" fill="#8F92A3"/>
</svg>
