<svg width="116" height="116" viewBox="0 0 116 116" fill="none" xmlns="http://www.w3.org/2000/svg">
<path d="M57.9984 14.8003C47.4959 14.8003 37.4235 18.9724 29.997 26.3989C22.5706 33.8253 18.3984 43.8977 18.3984 54.4003C18.3984 55.3551 18.7777 56.2707 19.4529 56.9459C20.128 57.621 21.0437 58.0003 21.9984 58.0003H93.9984C94.9532 58.0003 95.8689 57.621 96.544 56.9459C97.2192 56.2707 97.5984 55.3551 97.5984 54.4003C97.5984 43.8977 93.4263 33.8253 85.9999 26.3989C78.5734 18.9724 68.501 14.8003 57.9984 14.8003V14.8003Z" fill="#F7EDE3"/>
<path d="M47.198 36.4002H43.598C42.6433 36.4002 41.7276 36.0209 41.0525 35.3458C40.3773 34.6706 39.998 33.755 39.998 32.8002C39.998 31.8454 40.3773 30.9297 41.0525 30.2546C41.7276 29.5795 42.6433 29.2002 43.598 29.2002H47.198C48.1528 29.2002 49.0685 29.5795 49.7436 30.2546C50.4188 30.9297 50.798 31.8454 50.798 32.8002C50.798 33.755 50.4188 34.6706 49.7436 35.3458C49.0685 36.0209 48.1528 36.4002 47.198 36.4002Z" fill="#F0E0D1"/>
<path d="M72.3992 36.4002H68.7992C67.8444 36.4002 66.9288 36.0209 66.2536 35.3458C65.5785 34.6706 65.1992 33.755 65.1992 32.8002C65.1992 31.8454 65.5785 30.9297 66.2536 30.2546C66.9288 29.5795 67.8444 29.2002 68.7992 29.2002H72.3992C73.354 29.2002 74.2697 29.5795 74.9448 30.2546C75.6199 30.9297 75.9992 31.8454 75.9992 32.8002C75.9992 33.755 75.6199 34.6706 74.9448 35.3458C74.2697 36.0209 73.354 36.4002 72.3992 36.4002Z" fill="#F0E0D1"/>
<path d="M36.3992 47.2005H32.7992C31.8444 47.2005 30.9288 46.8212 30.2536 46.1461C29.5785 45.4709 29.1992 44.5553 29.1992 43.6005C29.1992 42.6457 29.5785 41.73 30.2536 41.0549C30.9288 40.3798 31.8444 40.0005 32.7992 40.0005H36.3992C37.354 40.0005 38.2697 40.3798 38.9448 41.0549C39.6199 41.73 39.9992 42.6457 39.9992 43.6005C39.9992 44.5553 39.6199 45.4709 38.9448 46.1461C38.2697 46.8212 37.354 47.2005 36.3992 47.2005Z" fill="#F0E0D1"/>
<path d="M50.7996 47.2005H47.1996C46.2448 47.2005 45.3292 46.8212 44.654 46.1461C43.9789 45.4709 43.5996 44.5553 43.5996 43.6005C43.5996 42.6457 43.9789 41.73 44.654 41.0549C45.3292 40.3798 46.2448 40.0005 47.1996 40.0005H50.7996C51.7544 40.0005 52.6701 40.3798 53.3452 41.0549C54.0203 41.73 54.3996 42.6457 54.3996 43.6005C54.3996 44.5553 54.0203 45.4709 53.3452 46.1461C52.6701 46.8212 51.7544 47.2005 50.7996 47.2005Z" fill="#F0E0D1"/>
<path d="M68.7996 47.2005H65.1996C64.2448 47.2005 63.3292 46.8212 62.654 46.1461C61.9789 45.4709 61.5996 44.5553 61.5996 43.6005C61.5996 42.6457 61.9789 41.73 62.654 41.0549C63.3292 40.3798 64.2448 40.0005 65.1996 40.0005H68.7996C69.7544 40.0005 70.6701 40.3798 71.3452 41.0549C72.0203 41.73 72.3996 42.6457 72.3996 43.6005C72.3996 44.5553 72.0203 45.4709 71.3452 46.1461C70.6701 46.8212 69.7544 47.2005 68.7996 47.2005Z" fill="#F0E0D1"/>
<path d="M83.198 47.2005H79.598C78.6433 47.2005 77.7276 46.8212 77.0525 46.1461C76.3773 45.4709 75.998 44.5553 75.998 43.6005C75.998 42.6457 76.3773 41.73 77.0525 41.0549C77.7276 40.3798 78.6433 40.0005 79.598 40.0005H83.198C84.1528 40.0005 85.0685 40.3798 85.7436 41.0549C86.4188 41.73 86.798 42.6457 86.798 43.6005C86.798 44.5553 86.4188 45.4709 85.7436 46.1461C85.0685 46.8212 84.1528 47.2005 83.198 47.2005Z" fill="#F0E0D1"/>
<path d="M98.7148 68.8003H68.7988C67.8441 68.8003 66.9284 68.421 66.2532 67.7459C65.5781 67.0707 65.1988 66.1551 65.1988 65.2003C65.1988 64.2455 65.5781 63.3298 66.2532 62.6547C66.9284 61.9796 67.8441 61.6003 68.7988 61.6003H100.587C100.992 59.2216 101.196 56.8132 101.199 54.4003C101.199 53.4455 100.82 52.5298 100.144 51.8547C99.4693 51.1796 98.5536 50.8003 97.5988 50.8003H18.3988C17.444 50.8003 16.5284 51.1796 15.8532 51.8547C15.1781 52.5298 14.7988 53.4455 14.7988 54.4003C14.8037 62.8152 17.266 71.0454 21.8834 78.0803C26.5009 85.1152 33.0724 90.6484 40.7908 94.0003H39.9988C39.044 94.0003 38.1284 94.3796 37.4532 95.0547C36.7781 95.7298 36.3988 96.6455 36.3988 97.6003C36.3988 98.5551 36.7781 99.4708 37.4532 100.146C38.1284 100.821 39.044 101.2 39.9988 101.2H75.9988C76.9536 101.2 77.8693 100.821 78.5444 100.146C79.2195 99.4708 79.5988 98.5551 79.5988 97.6003C79.5988 96.6455 79.2195 95.7298 78.5444 95.0547C77.8693 94.3796 76.9536 94.0003 75.9988 94.0003H75.2068C80.6367 91.6251 85.5232 88.1642 89.566 83.8305C93.6087 79.4968 96.7221 74.3819 98.7148 68.8003V68.8003Z" fill="#8F92A3"/>
</svg>
