<svg width="240" height="240" viewBox="0 0 240 240" fill="none" xmlns="http://www.w3.org/2000/svg">
<rect width="240" height="240" rx="24" fill="#EFF0F5"/>
<path d="M119.999 98.6649C104.227 98.6649 91.4404 113.503 91.4404 130.173C91.4404 146.842 100.554 164.691 114.777 171.593C116.412 172.388 118.195 172.8 120.001 172.8C121.806 172.8 123.589 172.388 125.224 171.593C139.447 164.691 148.561 146.712 148.561 130.173C148.561 113.633 135.774 98.6649 120.001 98.6649H119.999ZM127.441 136.047C125.467 138.097 122.791 139.248 119.999 139.248C117.208 139.248 114.532 138.097 112.557 136.047C110.583 133.997 109.475 131.218 109.475 128.319C109.475 125.421 110.583 122.642 112.557 120.592C114.532 118.542 117.208 117.391 119.999 117.391C122.791 117.391 125.467 118.542 127.441 120.592C129.415 122.642 130.524 125.421 130.524 128.319C130.524 131.218 129.415 133.997 127.441 136.047Z" fill="#E2E3E9"/>
<path d="M147.414 86.2013C141.239 82.1322 134.743 79.5078 128.152 78.3226V75.6656C128.152 70.9903 124.502 67.2 119.999 67.2C115.497 67.2 111.847 70.9903 111.847 75.6656V78.3226C105.257 79.5078 98.7595 82.1322 92.5851 86.2013C88.7837 88.7071 87.6575 93.9377 90.0696 97.885C92.4829 101.832 97.5203 103.002 101.322 100.497C113.366 92.5607 126.632 92.5607 138.676 100.497C140.031 101.39 141.543 101.816 143.037 101.816C145.735 101.816 148.376 100.427 149.929 97.8861C152.342 93.9389 151.216 88.7071 147.414 86.2024V86.2013Z" fill="#E2E3E9"/>
</svg>
