<svg width="100" height="100" viewBox="0 0 100 100" fill="none" xmlns="http://www.w3.org/2000/svg">
<rect width="100" height="100" rx="16" fill="#EFF0F5"/>
<path d="M49.9998 41.1104C43.4282 41.1104 38.1003 47.2931 38.1003 54.2387C38.1003 61.1842 41.8977 68.6213 47.8239 71.4972C48.5051 71.8283 49.248 72 50.0003 72C50.7526 72 51.4954 71.8283 52.1767 71.4972C58.1029 68.6213 61.9003 61.1302 61.9003 54.2387C61.9003 47.3472 56.5724 41.1104 50.0003 41.1104H49.9998ZM53.1007 56.6862C52.2781 57.5403 51.163 58.02 49.9998 58.02C48.8367 58.02 47.7216 57.5403 46.899 56.6862C46.0765 55.8321 45.6145 54.6742 45.6145 53.4664C45.6145 52.2587 46.0765 51.1008 46.899 50.2467C47.7216 49.3926 48.8367 48.9129 49.9998 48.9129C51.163 48.9129 52.2781 49.3926 53.1007 50.2467C53.9232 51.1008 54.3852 52.2587 54.3852 53.4664C54.3852 54.6742 53.9232 55.8321 53.1007 56.6862Z" fill="#E2E3E9"/>
<path d="M61.4225 35.9172C58.8498 34.2218 56.143 33.1283 53.3969 32.6345V31.5273C53.3969 29.5793 51.8759 28 49.9998 28C48.1238 28 46.6028 29.5793 46.6028 31.5273V32.6345C43.8571 33.1283 41.1499 34.2218 38.5772 35.9172C36.9933 36.9613 36.524 39.1407 37.5291 40.7854C38.5346 42.4301 40.6335 42.9173 42.2175 41.8737C47.236 38.567 52.7632 38.567 57.7818 41.8737C58.3461 42.2457 58.9762 42.4235 59.599 42.4235C60.7232 42.4235 61.8233 41.8446 62.4706 40.7859C63.4761 39.1412 63.0069 36.9613 61.4225 35.9177V35.9172Z" fill="#E2E3E9"/>
</svg>
