<svg width="152" height="152" viewBox="0 0 152 152" fill="none" xmlns="http://www.w3.org/2000/svg">
<g filter="url(#filter0_dd_1520_6171)">
<circle cx="76.1553" cy="69.75" r="63.75" fill="#4762EB"/>
<path d="M137.945 85.5C139.225 80.4626 139.905 75.1857 139.905 69.75C139.905 34.5418 111.363 6 76.1553 6C40.9471 6 12.4053 34.5418 12.4053 69.75C12.4053 75.1857 13.0856 80.4626 14.3657 85.5H137.945Z" fill="#193BE6"/>
<path d="M12.4092 69H139.901C139.499 34.1374 111.113 6 76.1549 6C41.1971 6 12.8111 34.1374 12.4092 69Z" fill="url(#paint0_linear_1520_6171)"/>
<g filter="url(#filter1_ddd_1520_6171)">
<path d="M76.1545 24C71.7784 24 67.5816 25.7384 64.4872 28.8327C61.3929 31.9271 59.6545 36.1239 59.6545 40.5C59.6545 40.8978 59.8125 41.2794 60.0938 41.5607C60.3751 41.842 60.7567 42 61.1545 42L91.1545 42C91.5523 42 91.9338 41.842 92.2152 41.5607C92.4965 41.2794 92.6545 40.8978 92.6545 40.5C92.6545 36.1239 90.9161 31.9271 87.8218 28.8327C84.7274 25.7384 80.5306 24 76.1545 24Z" fill="#FFD89E"/>
<path d="M93.1196 46.4999L80.6546 46.4999C80.2568 46.4999 79.8752 46.3419 79.5939 46.0606C79.3126 45.7793 79.1546 45.3977 79.1546 44.9999C79.1546 44.6021 79.3126 44.2206 79.5939 43.9392C79.8752 43.6579 80.2568 43.4999 80.6546 43.4999L93.8996 43.4999C94.0682 42.5088 94.1535 41.5053 94.1546 40.4999C94.1546 40.1021 93.9966 39.7206 93.7152 39.4392C93.4339 39.1579 93.0524 38.9999 92.6546 38.9999L59.6546 38.9999C59.2568 38.9999 58.8752 39.1579 58.5939 39.4392C58.3126 39.7206 58.1546 40.1021 58.1546 40.4999C58.1566 44.0061 59.1826 47.4354 61.1065 50.3666C63.0304 53.2978 65.7686 55.6033 68.9846 56.9999L68.6546 56.9999C68.2568 56.9999 67.8752 57.1579 67.5939 57.4392C67.3126 57.7206 67.1546 58.1021 67.1546 58.4999C67.1546 58.8977 67.3126 59.2793 67.5939 59.5606C67.8752 59.8419 68.2568 59.9999 68.6546 59.9999L83.6546 59.9999C84.0524 59.9999 84.4339 59.8419 84.7153 59.5606C84.9966 59.2793 85.1546 58.8977 85.1546 58.4999C85.1546 58.1021 84.9966 57.7206 84.7153 57.4392C84.4339 57.1579 84.0524 56.9999 83.6546 56.9999L83.3246 56.9999C85.587 56.0102 87.6231 54.5682 89.3076 52.7625C90.992 50.9568 92.2893 48.8256 93.1196 46.4999Z" fill="#FFD89E"/>
<path d="M94.5323 47.0043L95.2478 44.9999L95.1659 44.9999L95.3783 43.7515C95.561 42.6778 95.6534 41.5907 95.6546 40.5015L95.6546 40.4999C95.6546 39.7043 95.3385 38.9412 94.7759 38.3786C94.5334 38.1361 94.2536 37.9393 93.95 37.794C93.3764 34.0217 91.6136 30.5032 88.8824 27.7721C85.5068 24.3964 80.9284 22.5 76.1545 22.5C71.3806 22.5 66.8022 24.3964 63.4266 27.7721C60.6954 30.5033 58.9325 34.0218 58.359 37.7941C58.0555 37.9394 57.7757 38.1361 57.5333 38.3786C56.9707 38.9412 56.6546 39.7043 56.6546 40.4999L56.6546 40.5008C56.6568 44.2992 57.7682 48.0142 59.8525 51.1897C61.4394 53.6074 63.5376 55.6322 65.9863 57.1286C65.7703 57.549 65.6546 58.0185 65.6546 58.4999C65.6546 59.2956 65.9707 60.0586 66.5333 60.6212C67.0959 61.1838 67.859 61.4999 68.6546 61.4999L83.6546 61.4999C84.4502 61.4999 85.2133 61.1838 85.7759 60.6212C86.3385 60.0586 86.6546 59.2956 86.6546 58.4999C86.6546 58.0166 86.5379 57.5452 86.3203 57.1236C87.8223 56.2021 89.1968 55.0802 90.4044 53.7857C92.2284 51.8304 93.6332 49.5226 94.5323 47.0043Z" stroke="white" stroke-width="3"/>
</g>
<path d="M76.1553 24C71.7792 24 67.5824 25.7384 64.488 28.8327C61.3937 31.9271 59.6553 36.1239 59.6553 40.5C59.6553 40.8978 59.8133 41.2794 60.0946 41.5607C60.3759 41.842 60.7574 42 61.1553 42L91.1553 42C91.5531 42 91.9346 41.842 92.2159 41.5607C92.4972 41.2794 92.6553 40.8978 92.6553 40.5C92.6553 36.1239 90.9169 31.9271 87.8225 28.8327C84.7282 25.7384 80.5313 24 76.1553 24Z" fill="#F7EDE3"/>
<path d="M71.6553 33H70.1553C69.7574 33 69.3759 32.842 69.0946 32.5607C68.8133 32.2794 68.6553 31.8978 68.6553 31.5C68.6553 31.1022 68.8133 30.7206 69.0946 30.4393C69.3759 30.158 69.7574 30 70.1553 30H71.6553C72.0531 30 72.4346 30.158 72.7159 30.4393C72.9972 30.7206 73.1553 31.1022 73.1553 31.5C73.1553 31.8978 72.9972 32.2794 72.7159 32.5607C72.4346 32.842 72.0531 33 71.6553 33Z" fill="#F0E0D1"/>
<path d="M82.1553 33H80.6553C80.2574 33 79.8759 32.842 79.5946 32.5607C79.3133 32.2794 79.1553 31.8978 79.1553 31.5C79.1553 31.1022 79.3133 30.7206 79.5946 30.4393C79.8759 30.158 80.2574 30 80.6553 30H82.1553C82.5531 30 82.9346 30.158 83.2159 30.4393C83.4972 30.7206 83.6553 31.1022 83.6553 31.5C83.6553 31.8978 83.4972 32.2794 83.2159 32.5607C82.9346 32.842 82.5531 33 82.1553 33Z" fill="#F0E0D1"/>
<path d="M67.1553 37.5H65.6553C65.2574 37.5 64.8759 37.342 64.5946 37.0607C64.3133 36.7794 64.1553 36.3978 64.1553 36C64.1553 35.6022 64.3133 35.2206 64.5946 34.9393C64.8759 34.658 65.2574 34.5 65.6553 34.5H67.1553C67.5531 34.5 67.9346 34.658 68.2159 34.9393C68.4972 35.2206 68.6553 35.6022 68.6553 36C68.6553 36.3978 68.4972 36.7794 68.2159 37.0607C67.9346 37.342 67.5531 37.5 67.1553 37.5Z" fill="#F0E0D1"/>
<path d="M73.1553 37.5H71.6553C71.2574 37.5 70.8759 37.342 70.5946 37.0607C70.3133 36.7794 70.1553 36.3978 70.1553 36C70.1553 35.6022 70.3133 35.2206 70.5946 34.9393C70.8759 34.658 71.2574 34.5 71.6553 34.5H73.1553C73.5531 34.5 73.9346 34.658 74.2159 34.9393C74.4972 35.2206 74.6553 35.6022 74.6553 36C74.6553 36.3978 74.4972 36.7794 74.2159 37.0607C73.9346 37.342 73.5531 37.5 73.1553 37.5Z" fill="#F0E0D1"/>
<path d="M80.6553 37.5H79.1553C78.7574 37.5 78.3759 37.342 78.0946 37.0607C77.8133 36.7794 77.6553 36.3978 77.6553 36C77.6553 35.6022 77.8133 35.2206 78.0946 34.9393C78.3759 34.658 78.7574 34.5 79.1553 34.5H80.6553C81.0531 34.5 81.4346 34.658 81.7159 34.9393C81.9972 35.2206 82.1553 35.6022 82.1553 36C82.1553 36.3978 81.9972 36.7794 81.7159 37.0607C81.4346 37.342 81.0531 37.5 80.6553 37.5Z" fill="#F0E0D1"/>
<path d="M86.6553 37.5H85.1553C84.7574 37.5 84.3759 37.342 84.0946 37.0607C83.8133 36.7794 83.6553 36.3978 83.6553 36C83.6553 35.6022 83.8133 35.2206 84.0946 34.9393C84.3759 34.658 84.7574 34.5 85.1553 34.5H86.6553C87.0531 34.5 87.4346 34.658 87.7159 34.9393C87.9972 35.2206 88.1553 35.6022 88.1553 36C88.1553 36.3978 87.9972 36.7794 87.7159 37.0607C87.4346 37.342 87.0531 37.5 86.6553 37.5Z" fill="#F0E0D1"/>
<path d="M93.1203 46.5H80.6553C80.2574 46.5 79.8759 46.342 79.5946 46.0607C79.3133 45.7794 79.1553 45.3978 79.1553 45C79.1553 44.6022 79.3133 44.2206 79.5946 43.9393C79.8759 43.658 80.2574 43.5 80.6553 43.5H93.9003C94.0689 42.5089 94.1542 41.5054 94.1553 40.5C94.1553 40.1022 93.9972 39.7206 93.7159 39.4393C93.4346 39.158 93.0531 39 92.6553 39L59.6553 39C59.2574 39 58.8759 39.158 58.5946 39.4393C58.3133 39.7206 58.1553 40.1022 58.1553 40.5C58.1573 44.0062 59.1833 47.4355 61.1072 50.3667C63.0311 53.2979 65.7692 55.6034 68.9853 57H68.6553C68.2574 57 67.8759 57.158 67.5946 57.4393C67.3133 57.7206 67.1553 58.1022 67.1553 58.5C67.1553 58.8978 67.3133 59.2794 67.5946 59.5607C67.8759 59.842 68.2574 60 68.6553 60H83.6553C84.0531 60 84.4346 59.842 84.7159 59.5607C84.9972 59.2794 85.1553 58.8978 85.1553 58.5C85.1553 58.1022 84.9972 57.7206 84.7159 57.4393C84.4346 57.158 84.0531 57 83.6553 57H83.3253C85.5877 56.0103 87.6238 54.5683 89.3082 52.7626C90.9927 50.9569 92.29 48.8257 93.1203 46.5Z" fill="#8F92A3"/>
</g>
<defs>
<filter id="filter0_dd_1520_6171" x="0.405273" y="0" width="151.5" height="151.5" filterUnits="userSpaceOnUse" color-interpolation-filters="sRGB">
<feFlood flood-opacity="0" result="BackgroundImageFix"/>
<feColorMatrix in="SourceAlpha" type="matrix" values="0 0 0 0 0 0 0 0 0 0 0 0 0 0 0 0 0 0 127 0" result="hardAlpha"/>
<feOffset/>
<feGaussianBlur stdDeviation="2"/>
<feComposite in2="hardAlpha" operator="out"/>
<feColorMatrix type="matrix" values="0 0 0 0 0 0 0 0 0 0 0 0 0 0 0 0 0 0 0.05 0"/>
<feBlend mode="normal" in2="BackgroundImageFix" result="effect1_dropShadow_1520_6171"/>
<feColorMatrix in="SourceAlpha" type="matrix" values="0 0 0 0 0 0 0 0 0 0 0 0 0 0 0 0 0 0 127 0" result="hardAlpha"/>
<feOffset dy="6"/>
<feGaussianBlur stdDeviation="6"/>
<feComposite in2="hardAlpha" operator="out"/>
<feColorMatrix type="matrix" values="0 0 0 0 0 0 0 0 0 0 0 0 0 0 0 0 0 0 0.1 0"/>
<feBlend mode="normal" in2="effect1_dropShadow_1520_6171" result="effect2_dropShadow_1520_6171"/>
<feBlend mode="normal" in="SourceGraphic" in2="effect2_dropShadow_1520_6171" result="shape"/>
</filter>
<filter id="filter1_ddd_1520_6171" x="53.1543" y="20" width="46.2217" height="46" filterUnits="userSpaceOnUse" color-interpolation-filters="sRGB">
<feFlood flood-opacity="0" result="BackgroundImageFix"/>
<feColorMatrix in="SourceAlpha" type="matrix" values="0 0 0 0 0 0 0 0 0 0 0 0 0 0 0 0 0 0 127 0" result="hardAlpha"/>
<feOffset/>
<feGaussianBlur stdDeviation="0.5"/>
<feComposite in2="hardAlpha" operator="out"/>
<feColorMatrix type="matrix" values="0 0 0 0 0 0 0 0 0 0 0 0 0 0 0 0 0 0 0.08 0"/>
<feBlend mode="normal" in2="BackgroundImageFix" result="effect1_dropShadow_1520_6171"/>
<feColorMatrix in="SourceAlpha" type="matrix" values="0 0 0 0 0 0 0 0 0 0 0 0 0 0 0 0 0 0 127 0" result="hardAlpha"/>
<feOffset/>
<feGaussianBlur stdDeviation="0.5"/>
<feComposite in2="hardAlpha" operator="out"/>
<feColorMatrix type="matrix" values="0 0 0 0 0 0 0 0 0 0 0 0 0 0 0 0 0 0 0.08 0"/>
<feBlend mode="normal" in2="effect1_dropShadow_1520_6171" result="effect2_dropShadow_1520_6171"/>
<feColorMatrix in="SourceAlpha" type="matrix" values="0 0 0 0 0 0 0 0 0 0 0 0 0 0 0 0 0 0 127 0" result="hardAlpha"/>
<feOffset dy="1"/>
<feGaussianBlur stdDeviation="1"/>
<feComposite in2="hardAlpha" operator="out"/>
<feColorMatrix type="matrix" values="0 0 0 0 0 0 0 0 0 0 0 0 0 0 0 0 0 0 0.12 0"/>
<feBlend mode="normal" in2="effect2_dropShadow_1520_6171" result="effect3_dropShadow_1520_6171"/>
<feBlend mode="normal" in="SourceGraphic" in2="effect3_dropShadow_1520_6171" result="shape"/>
</filter>
<linearGradient id="paint0_linear_1520_6171" x1="76.1549" y1="6" x2="76.1549" y2="69" gradientUnits="userSpaceOnUse">
<stop stop-color="#FAFBFE"/>
<stop offset="1" stop-color="#E8EBFC"/>
</linearGradient>
</defs>
</svg>
