<svg width="48" height="48" viewBox="0 0 48 48" fill="none" xmlns="http://www.w3.org/2000/svg">
<path d="M34.2598 15C34.4306 14.5188 34.512 14.0105 34.4998 13.5C34.4998 12.3065 34.0257 11.1619 33.1818 10.318C32.3379 9.47411 31.1933 9 29.9998 9C28.8917 9.0025 27.8235 9.41376 26.9998 10.155C26.1556 9.45753 25.0948 9.07599 23.9998 9.07599C22.9048 9.07599 21.844 9.45753 20.9998 10.155C20.3529 9.57639 19.5525 9.19719 18.695 9.06311C17.8375 8.92904 16.9595 9.04579 16.1668 9.39932C15.3742 9.75284 14.7007 10.328 14.2275 11.0556C13.7543 11.7832 13.5016 12.6321 13.4998 13.5C13.4977 13.984 13.5737 14.4652 13.7248 14.925C9.62279 19.2198 7.38515 24.9621 7.4998 30.9C7.4998 36.285 14.7448 40.5 23.9998 40.5C33.2548 40.5 40.4998 36.285 40.4998 30.9C40.5906 24.9858 38.3489 19.2738 34.2598 15Z" fill="#FFD89E"/>
<path d="M24 21C23.6022 21 23.2206 20.842 22.9393 20.5607C22.658 20.2794 22.5 19.8978 22.5 19.5V16.5C22.5 16.1022 22.658 15.7206 22.9393 15.4393C23.2206 15.158 23.6022 15 24 15C24.3978 15 24.7794 15.158 25.0607 15.4393C25.342 15.7206 25.5 16.1022 25.5 16.5V19.5C25.5 19.8978 25.342 20.2794 25.0607 20.5607C24.7794 20.842 24.3978 21 24 21Z" fill="#FFCB7C"/>
<path d="M19.5 21C19.1022 21 18.7206 20.842 18.4393 20.5607C18.158 20.2794 18 19.8978 18 19.5V16.5C18 16.1022 18.158 15.7206 18.4393 15.4393C18.7206 15.158 19.1022 15 19.5 15C19.8978 15 20.2794 15.158 20.5607 15.4393C20.842 15.7206 21 16.1022 21 16.5V19.5C21 19.8978 20.842 20.2794 20.5607 20.5607C20.2794 20.842 19.8978 21 19.5 21Z" fill="#FFCB7C"/>
<path d="M28.5 21C28.1022 21 27.7206 20.842 27.4393 20.5607C27.158 20.2794 27 19.8978 27 19.5V16.5C27 16.1022 27.158 15.7206 27.4393 15.4393C27.7206 15.158 28.1022 15 28.5 15C28.8978 15 29.2794 15.158 29.5607 15.4393C29.842 15.7206 30 16.1022 30 16.5V19.5C30 19.8978 29.842 20.2794 29.5607 20.5607C29.2794 20.842 28.8978 21 28.5 21Z" fill="#FFCB7C"/>
</svg>
