<svg width="116" height="116" viewBox="0 0 116 116" fill="none" xmlns="http://www.w3.org/2000/svg">
<path d="M82.6247 36.4C83.0347 35.2452 83.2299 34.0251 83.2007 32.8C83.2007 29.9357 82.0629 27.1886 80.0375 25.1632C78.0121 23.1379 75.265 22 72.4007 22C69.7413 22.006 67.1775 22.993 65.2007 24.772C63.1747 23.0981 60.6288 22.1824 58.0007 22.1824C55.3726 22.1824 52.8267 23.0981 50.8007 24.772C49.2481 23.3833 47.3271 22.4733 45.2691 22.1515C43.2111 21.8297 41.104 22.1099 39.2016 22.9584C37.2992 23.8068 35.6828 25.1873 34.5471 26.9335C33.4114 28.6797 32.8049 30.717 32.8007 32.8C32.7956 33.9616 32.9779 35.1165 33.3407 36.22C23.4959 46.5274 18.1255 60.3091 18.4007 74.56C18.4007 87.484 35.7887 97.6 58.0007 97.6C80.2127 97.6 97.6007 87.484 97.6007 74.56C97.8186 60.366 92.4385 46.6571 82.6247 36.4V36.4Z" fill="#FFD89E"/>
<path d="M58.0004 50.7999C57.0456 50.7999 56.1299 50.4206 55.4548 49.7455C54.7797 49.0704 54.4004 48.1547 54.4004 47.1999V39.9999C54.4004 39.0451 54.7797 38.1294 55.4548 37.4543C56.1299 36.7792 57.0456 36.3999 58.0004 36.3999C58.9552 36.3999 59.8708 36.7792 60.546 37.4543C61.2211 38.1294 61.6004 39.0451 61.6004 39.9999V47.1999C61.6004 48.1547 61.2211 49.0704 60.546 49.7455C59.8708 50.4206 58.9552 50.7999 58.0004 50.7999Z" fill="#FFCB7C"/>
<path d="M47.1996 50.7999C46.2448 50.7999 45.3292 50.4206 44.654 49.7455C43.9789 49.0704 43.5996 48.1547 43.5996 47.1999V39.9999C43.5996 39.0451 43.9789 38.1294 44.654 37.4543C45.3292 36.7792 46.2448 36.3999 47.1996 36.3999C48.1544 36.3999 49.0701 36.7792 49.7452 37.4543C50.4203 38.1294 50.7996 39.0451 50.7996 39.9999V47.1999C50.7996 48.1547 50.4203 49.0704 49.7452 49.7455C49.0701 50.4206 48.1544 50.7999 47.1996 50.7999Z" fill="#FFCB7C"/>
<path d="M68.7992 50.7999C67.8444 50.7999 66.9288 50.4206 66.2536 49.7455C65.5785 49.0704 65.1992 48.1547 65.1992 47.1999V39.9999C65.1992 39.0451 65.5785 38.1294 66.2536 37.4543C66.9288 36.7792 67.8444 36.3999 68.7992 36.3999C69.754 36.3999 70.6697 36.7792 71.3448 37.4543C72.0199 38.1294 72.3992 39.0451 72.3992 39.9999V47.1999C72.3992 48.1547 72.0199 49.0704 71.3448 49.7455C70.6697 50.4206 69.754 50.7999 68.7992 50.7999Z" fill="#FFCB7C"/>
</svg>
