<svg width="32" height="32" viewBox="0 0 32 32" fill="none" xmlns="http://www.w3.org/2000/svg">
<path d="M15.9999 9.93891C11.4503 9.93891 7.76171 14.1544 7.76171 18.89C7.76171 23.6256 10.3907 28.6963 14.4935 30.6572C14.9651 30.883 15.4794 31 16.0002 31C16.521 31 17.0353 30.883 17.5069 30.6572C21.6097 28.6963 24.2387 23.5887 24.2387 18.89C24.2387 14.1913 20.5501 9.93891 16.0002 9.93891H15.9999ZM18.1466 20.5588C17.5772 21.1411 16.8051 21.4682 15.9999 21.4682C15.1946 21.4682 14.4226 21.1411 13.8532 20.5588C13.2837 19.9764 12.9639 19.1869 12.9639 18.3635C12.9639 17.54 13.2837 16.7505 13.8532 16.1682C14.4226 15.5859 15.1946 15.2588 15.9999 15.2588C16.8051 15.2588 17.5772 15.5859 18.1466 16.1682C18.7161 16.7505 19.0359 17.54 19.0359 18.3635C19.0359 19.1869 18.7161 19.9764 18.1466 20.5588Z" fill="white"/>
<path d="M23.9079 6.39811C22.1268 5.2421 20.2529 4.49655 18.3517 4.15985V3.405C18.3517 2.0768 17.2987 1 15.9999 1C14.7011 1 13.6481 2.0768 13.6481 3.405V4.15985C11.7472 4.49655 9.873 5.2421 8.0919 6.39811C6.99534 7.10999 6.67048 8.59596 7.3663 9.71733C8.06243 10.8387 9.51552 11.1709 10.6121 10.4594C14.0865 8.20475 17.913 8.20475 21.3874 10.4594C21.7781 10.713 22.2143 10.8342 22.6454 10.8342C23.4237 10.8342 24.1854 10.4395 24.6335 9.71765C25.3296 8.59628 25.0048 7.10999 23.9079 6.39843V6.39811Z" fill="white"/>
</svg>
