<svg width="108" height="36" viewBox="0 0 108 36" fill="none" xmlns="http://www.w3.org/2000/svg">
<g filter="url(#filter0_ddd_3174_82)">
<rect x="2" y="1" width="32" height="32" rx="8" fill="url(#paint0_linear_3174_82)" shape-rendering="crispEdges"/>
<path d="M17.9999 12.2521C14.3507 12.2521 11.3922 15.5543 11.3922 19.2638C11.3922 22.9734 13.5009 26.9455 16.7917 28.4815C17.1699 28.6583 17.5824 28.75 18.0002 28.75C18.4179 28.75 18.8304 28.6583 19.2087 28.4815C22.4995 26.9455 24.6081 22.9445 24.6081 19.2638C24.6081 15.5832 21.6496 12.2521 18.0002 12.2521H17.9999ZM19.7218 20.571C19.265 21.0272 18.6458 21.2834 17.9999 21.2834C17.354 21.2834 16.7348 21.0272 16.2781 20.571C15.8213 20.1149 15.5648 19.4964 15.5648 18.8514C15.5648 18.2063 15.8213 17.5879 16.2781 17.1317C16.7348 16.6756 17.354 16.4194 17.9999 16.4194C18.6458 16.4194 19.265 16.6756 19.7218 17.1317C20.1785 17.5879 20.435 18.2063 20.435 18.8514C20.435 19.4964 20.1785 20.1149 19.7218 20.571Z" fill="url(#paint1_linear_3174_82)"/>
<path d="M24.3428 9.47852C22.9142 8.57298 21.4112 7.98897 19.8862 7.72522V7.13392C19.8862 6.09349 19.0417 5.25 17.9999 5.25C16.9582 5.25 16.1136 6.09349 16.1136 7.13392V7.72522C14.5889 7.98897 13.0856 8.57298 11.657 9.47852C10.7775 10.0362 10.5169 11.2002 11.0751 12.0786C11.6334 12.957 12.7989 13.2172 13.6784 12.6598C16.4652 10.8937 19.5344 10.8937 22.3211 12.6598C22.6345 12.8585 22.9844 12.9535 23.3302 12.9535C23.9544 12.9535 24.5654 12.6443 24.9248 12.0788C25.4831 11.2004 25.2226 10.0362 24.3428 9.47877V9.47852Z" fill="url(#paint2_linear_3174_82)"/>
</g>
<path d="M102.769 27.656C101.737 27.656 100.825 27.176 100.825 25.568V24.2H89.0407C87.2167 24.2 86.8567 23.432 86.8567 22.664C86.8567 21.704 87.2167 21.08 89.0407 21.08H93.9127V19.472H87.1207C85.5847 19.472 85.2967 18.824 85.2967 17.912C85.2967 17.168 85.5607 16.376 87.1207 16.376H104.569C106.129 16.376 106.393 17.168 106.393 17.912C106.393 18.824 106.105 19.472 104.569 19.472H97.8007V21.08H102.769C104.617 21.08 104.713 22.16 104.713 23.096V25.568C104.713 27.224 103.777 27.656 102.769 27.656ZM102.889 14.984H88.8007C87.1207 14.984 86.9767 14.096 86.9767 13.184V9.12801C86.9767 7.52001 87.8887 7.04001 88.9207 7.04001H102.769C103.777 7.04001 104.713 7.47201 104.713 9.12801V13.184C104.713 14.096 104.569 14.984 102.889 14.984ZM90.8647 11.912H100.825V10.112H90.8647V11.912Z" fill="#193BE6"/>
<path d="M74.012 27.392C72.932 27.392 72.068 26.888 72.068 25.28V22.208H65.66C63.908 22.208 63.476 21.416 63.476 20.576C63.476 19.592 63.908 18.896 65.66 18.896H82.34C84.092 18.896 84.524 19.592 84.524 20.576C84.524 21.416 84.092 22.208 82.34 22.208H75.956V25.28C75.956 26.936 75.044 27.392 74.012 27.392ZM81.044 16.736H66.956C65.276 16.736 65.132 15.848 65.132 14.936V9.12801C65.132 7.52001 66.044 7.04001 67.076 7.04001H80.924C81.932 7.04001 82.868 7.47201 82.868 9.12801V14.936C82.868 15.848 82.724 16.736 81.044 16.736ZM69.02 13.424H78.98V10.352H69.02V13.424Z" fill="#193BE6"/>
<path d="M60.8793 20.024H43.4313C41.8713 20.024 41.6073 19.616 41.6073 18.704C41.6073 17.96 41.8953 17.408 43.4313 17.408H50.2233V16.4H49.1193C45.7353 16.4 44.0313 15.344 44.0313 13.52V13.016C44.0313 12.776 44.0553 12.536 44.1033 12.32C42.9753 12.224 42.8073 11.744 42.8073 11.072C42.8073 10.208 43.0713 9.77601 44.5113 9.77601H59.7273C61.1673 9.77601 61.4313 10.208 61.4313 11.072C61.4313 11.744 61.2393 12.224 60.1593 12.32C60.2313 12.536 60.2553 12.752 60.2553 13.016V13.52C60.2553 15.248 58.5753 16.4 55.1913 16.4H54.1113V17.408H60.8793C62.4153 17.408 62.7033 17.96 62.7033 18.704C62.7033 19.616 62.4393 20.024 60.8793 20.024ZM57.3273 27.68H46.9353C43.9113 27.608 42.8313 26.408 42.8313 24.344C42.8313 22.208 43.7433 21.008 46.9833 21.008H57.2793C60.5193 21.008 61.4313 22.208 61.4313 24.344C61.4313 26.456 60.3273 27.584 57.3273 27.68ZM48.0153 25.016H56.2473C57.1833 25.016 57.5673 24.992 57.5673 24.344C57.5673 23.696 57.1833 23.672 56.2473 23.672H48.0153C47.0793 23.672 46.6953 23.696 46.6953 24.344C46.6953 24.992 47.0793 25.016 48.0153 25.016ZM49.4313 13.928H54.8553C56.2713 13.928 56.4393 13.592 56.4393 13.208V13.088C56.4393 12.872 56.3673 12.704 56.2233 12.56C56.0553 12.44 55.6953 12.344 55.0953 12.32H49.5033C48.1113 12.32 47.8473 12.584 47.8473 13.088V13.208C47.8473 13.592 48.0153 13.928 49.4313 13.928ZM56.2473 8.76801H47.5593C46.4313 8.76801 46.2153 8.21601 46.2153 7.56801C46.2153 6.80001 46.4313 6.32001 47.5593 6.32001H56.2473C57.3753 6.32001 57.5913 6.80001 57.5913 7.56801C57.5913 8.21601 57.3753 8.76801 56.2473 8.76801Z" fill="#193BE6"/>
<defs>
<filter id="filter0_ddd_3174_82" x="0" y="0" width="36" height="36" filterUnits="userSpaceOnUse" color-interpolation-filters="sRGB">
<feFlood flood-opacity="0" result="BackgroundImageFix"/>
<feColorMatrix in="SourceAlpha" type="matrix" values="0 0 0 0 0 0 0 0 0 0 0 0 0 0 0 0 0 0 127 0" result="hardAlpha"/>
<feOffset/>
<feGaussianBlur stdDeviation="0.5"/>
<feComposite in2="hardAlpha" operator="out"/>
<feColorMatrix type="matrix" values="0 0 0 0 0 0 0 0 0 0 0 0 0 0 0 0 0 0 0.08 0"/>
<feBlend mode="normal" in2="BackgroundImageFix" result="effect1_dropShadow_3174_82"/>
<feColorMatrix in="SourceAlpha" type="matrix" values="0 0 0 0 0 0 0 0 0 0 0 0 0 0 0 0 0 0 127 0" result="hardAlpha"/>
<feOffset/>
<feGaussianBlur stdDeviation="0.5"/>
<feComposite in2="hardAlpha" operator="out"/>
<feColorMatrix type="matrix" values="0 0 0 0 0 0 0 0 0 0 0 0 0 0 0 0 0 0 0.08 0"/>
<feBlend mode="normal" in2="effect1_dropShadow_3174_82" result="effect2_dropShadow_3174_82"/>
<feColorMatrix in="SourceAlpha" type="matrix" values="0 0 0 0 0 0 0 0 0 0 0 0 0 0 0 0 0 0 127 0" result="hardAlpha"/>
<feOffset dy="1"/>
<feGaussianBlur stdDeviation="1"/>
<feComposite in2="hardAlpha" operator="out"/>
<feColorMatrix type="matrix" values="0 0 0 0 0 0 0 0 0 0 0 0 0 0 0 0 0 0 0.12 0"/>
<feBlend mode="normal" in2="effect2_dropShadow_3174_82" result="effect3_dropShadow_3174_82"/>
<feBlend mode="normal" in="SourceGraphic" in2="effect3_dropShadow_3174_82" result="shape"/>
</filter>
<linearGradient id="paint0_linear_3174_82" x1="18" y1="1" x2="18" y2="33" gradientUnits="userSpaceOnUse">
<stop stop-color="white"/>
<stop offset="1" stop-color="#E2E3E9"/>
</linearGradient>
<linearGradient id="paint1_linear_3174_82" x1="18" y1="5.25" x2="18" y2="28.75" gradientUnits="userSpaceOnUse">
<stop stop-color="#193BE6"/>
<stop offset="1" stop-color="#0F248A"/>
</linearGradient>
<linearGradient id="paint2_linear_3174_82" x1="18" y1="5.25" x2="18" y2="28.75" gradientUnits="userSpaceOnUse">
<stop stop-color="#193BE6"/>
<stop offset="1" stop-color="#0F248A"/>
</linearGradient>
</defs>
</svg>
