<svg width="180" height="180" viewBox="0 0 180 180" fill="none" xmlns="http://www.w3.org/2000/svg">
<path d="M116.36 58.8138C110.423 54.9989 104.176 52.5386 97.839 51.4275V48.9365C97.839 44.5534 94.329 41 89.9996 41C85.6702 41 82.1603 44.5534 82.1603 48.9365V51.4275C75.8241 52.5386 69.5767 54.9989 63.6397 58.8138C59.9845 61.163 58.9016 66.0667 61.221 69.7672C63.5414 73.4677 68.3851 74.564 72.0403 72.2159C83.6216 64.7757 96.3767 64.7757 107.958 72.2159C109.26 73.0529 110.714 73.4529 112.151 73.4529C114.746 73.4529 117.285 72.1503 118.778 69.7683C121.099 66.0677 120.016 61.163 116.36 58.8148V58.8138Z" fill="url(#paint0_linear_1126_14815)"/>
<path d="M89.9996 70.4984C74.8342 70.4984 62.539 84.4095 62.539 100.037C62.539 115.665 71.3023 132.398 84.9783 138.869C86.5503 139.614 88.2645 140 90.0007 140C91.7368 140 93.451 139.614 95.0231 138.869C108.699 132.398 117.462 115.543 117.462 100.037C117.462 84.5312 105.167 70.4984 90.0007 70.4984H89.9996Z" fill="url(#paint1_linear_1126_14815)"/>
<path d="M90.5 117.1H90.5145M85.425 111.922C86.7802 110.594 88.6023 109.85 90.5 109.85C92.3977 109.85 94.2198 110.594 95.575 111.922M80.35 106.746C82.4061 104.73 85.0158 103.372 87.8465 102.845M100.65 106.746C99.7769 105.89 98.7991 105.148 97.7399 104.537M76 100.889C77.7931 99.2854 79.8397 97.9904 82.0567 97.0567M105 100.889C102.788 98.9109 100.195 97.4063 97.3805 96.4677C94.5657 95.5291 91.5886 95.1764 88.6324 95.4312M76 91L105 120" stroke="white" stroke-width="4" stroke-linecap="round" stroke-linejoin="round"/>
<defs>
<linearGradient id="paint0_linear_1126_14815" x1="90" y1="41" x2="90" y2="140" gradientUnits="userSpaceOnUse">
<stop stop-color="#E2E3E9"/>
<stop offset="1" stop-color="#ABADBA"/>
</linearGradient>
<linearGradient id="paint1_linear_1126_14815" x1="90" y1="41" x2="90" y2="140" gradientUnits="userSpaceOnUse">
<stop stop-color="#E2E3E9"/>
<stop offset="1" stop-color="#ABADBA"/>
</linearGradient>
</defs>
</svg>
